<svg width="75" height="65" viewBox="0 0 75 65" fill="none" xmlns="http://www.w3.org/2000/svg">
<g id="people-icon">
<g id="Group 111">
<g id="Group 107">
<path id="Vector 118" d="M9.55368 51.7473C7.93293 54.5586 7 57.6149 7 60.8496V60.8697C6.99996 62.2049 6.99994 62.8441 8.48177 62.8441H12.1074C18.1198 62.8441 24.2381 63.2047 30.2353 62.8283C36.2314 62.452 42.3518 62.3701 48.3633 62.2743C50.8668 62.2344 53.3837 62.0307 55.8667 61.6411C58.607 61.2111 61.5188 60.2797 64.3002 60.2797C65.1603 60.2797 68.2071 60.2686 67.9888 59.2824C67.4816 56.9901 67.0754 54.5556 66.444 52.3014C65.3416 48.365 61.4985 45.745 58.1997 43.7373C54.5404 41.5102 51.1384 39.7727 47.0077 38.5609C42.8269 37.3344 38.2506 38.5298 34.0186 38.9725C29.2431 39.472 24.3737 41.3654 20.0364 43.3099C17.6796 44.3665 15.319 45.1204 13.2423 46.7292C11.6506 47.9623 10.5467 50.0248 9.55368 51.7473Z" fill="white"/>
<path id="Vector 119" d="M26.0575 32.1889C27.455 32.6341 28.5813 34.1811 30.1641 34.1811C32.6806 32.9058 35.0771 32.4595 37.9913 31.8687C40.9669 31.2655 44.6913 29.0233 46.5731 26.6392C48.6456 24.0134 49.7496 22.1453 49.7496 18.8127C49.7496 12.9164 46.1472 5.68547 39.5006 5.68547C34.4761 5.68547 31.1118 9.54475 31.1118 14.5081C31.1118 15.3574 30.5464 12.9074 30.3221 12.089C29.9682 10.7977 29.5875 9.71499 29.076 8.44253C28.2649 6.42445 27.4551 3.8928 25.4257 2.80388C23.2116 1.61581 21.8657 1.90931 19.4413 2.62601C18.1144 3.01826 16.8266 2.87484 15.7909 3.9245C14.6386 5.09242 13.6614 6.26459 12.9479 7.76661C10.3532 13.2286 12.4555 20.985 16.4403 25.2162C18.0151 26.8883 19.8543 28.1097 21.7052 29.4496C22.9579 30.3565 24.5699 31.715 26.0575 32.1889Z" fill="#FF6442"/>
</g>
</g>
</g>
</svg>
