<svg width="75" height="65" viewBox="0 0 75 65" fill="none" xmlns="http://www.w3.org/2000/svg">
<g id="cleanup-icon">
<g id="Group 110">
<g id="Group 64">
<path id="Vector 114" d="M10.7186 20.267C10.0399 19.2506 9.44693 18.1901 8.65297 17.2549C8.09208 16.5942 8.56499 15.8442 9.29604 15.3787C10.5056 14.6085 11.6772 13.2238 12.7299 12.7636C14.0119 12.2031 15.0014 11.2299 16.236 10.5852C17.3297 10.014 18.5031 9.68087 19.5791 9.07909C20.4174 8.61023 22.9205 7.04935 23.9278 7.49234C24.7574 7.85717 25.2021 8.84201 25.9391 9.37492C26.9424 10.1004 27.8277 11.3714 28.5755 12.3333C29.136 13.0543 29.9169 13.5756 30.478 14.2696C30.7557 14.613 25.525 16.7397 24.9063 16.9321C23.7803 17.2823 23.1244 18.5197 21.9709 18.8685C20.6695 19.262 19.4109 20.6712 18.5463 21.6655C17.9858 22.31 17.1956 22.5986 16.6029 23.185C16.1114 23.6714 15.8048 24.3244 15.3119 24.8121C14.5492 25.5668 14.1027 25.1959 13.654 24.3818C12.8693 22.9584 11.6353 21.6398 10.7186 20.267Z" fill="white"/>
<path id="Vector 114 (Stroke)" fill-rule="evenodd" clip-rule="evenodd" d="M22.7884 6.83713C23.2148 6.73707 23.7395 6.67999 24.1963 6.88087C24.7638 7.13044 25.1679 7.57749 25.475 7.93601C25.5271 7.9968 25.5765 8.05515 25.624 8.11114C25.8866 8.4211 26.0877 8.65837 26.33 8.83361C27.2667 9.51089 28.1032 10.6116 28.7654 11.4829C28.8834 11.6382 28.9959 11.7862 29.1024 11.9232C29.343 12.2328 29.6375 12.5077 29.9772 12.8189C29.9927 12.8331 30.0083 12.8474 30.024 12.8617C30.3387 13.1497 30.694 13.4748 30.997 13.8496C31.1275 14.011 31.1734 14.2081 31.1505 14.3901C31.1307 14.5472 31.0645 14.6631 31.0217 14.7267C30.9376 14.8517 30.8266 14.9448 30.753 15.002C30.5907 15.1281 30.3673 15.2611 30.1303 15.39C29.6449 15.6539 28.9779 15.9667 28.2986 16.2678C26.9495 16.866 25.4549 17.4606 25.1042 17.5697C24.7022 17.6947 24.363 17.9838 23.8908 18.4011C23.8814 18.4094 23.872 18.4177 23.8625 18.4261C23.4358 18.8034 22.8866 19.289 22.1638 19.5076C21.6525 19.6622 21.0998 20.0362 20.5407 20.5384C19.9892 21.0337 19.4824 21.6062 19.0499 22.1035C18.7039 22.5014 18.2963 22.7779 17.9547 23.0039C17.9287 23.0211 17.903 23.038 17.8778 23.0547C17.5525 23.2694 17.2943 23.4399 17.0723 23.6595C16.8765 23.8533 16.7103 24.0874 16.5045 24.3811L16.4914 24.3998C16.3003 24.6727 16.071 25 15.7813 25.2866C15.3405 25.7228 14.7664 26.0525 14.1273 25.8092C13.8518 25.7043 13.6429 25.5156 13.486 25.331C13.3275 25.1446 13.1905 24.9248 13.0688 24.704C12.7028 24.04 12.2252 23.3889 11.7057 22.7118C11.6091 22.586 11.5107 22.4588 11.4115 22.3305C10.9873 21.7822 10.5473 21.2134 10.1629 20.6377C9.94823 20.3162 9.74946 20.0033 9.55592 19.6987C9.10219 18.9845 8.67719 18.3155 8.14353 17.6869L8.64124 17.2644L8.14353 17.6869C7.68875 17.1512 7.64352 16.5271 7.87507 15.9822C8.08578 15.4864 8.50508 15.0902 8.93701 14.8152L9.2957 15.3785L8.93701 14.8152C9.42484 14.5046 9.90993 14.0815 10.4277 13.6299C10.4957 13.5705 10.5643 13.5107 10.6336 13.4505C11.1942 12.9636 11.8261 12.4296 12.462 12.1515C13.0359 11.9006 13.5558 11.5524 14.117 11.159C14.1753 11.1181 14.2342 11.0766 14.2937 11.0347C14.7918 10.684 15.3323 10.3034 15.9265 9.99304C16.4671 9.71077 17.0236 9.4845 17.5459 9.27218C17.5848 9.25636 17.6235 9.24062 17.662 9.22494C18.2283 8.99433 18.7551 8.7744 19.2528 8.49608C19.3314 8.45211 19.4298 8.39539 19.5442 8.32949C19.9977 8.0682 20.7014 7.66275 21.411 7.33677C21.8574 7.13168 22.3368 6.94307 22.7884 6.83713ZM20.241 9.46978C20.1149 9.54237 20.0018 9.6075 19.9047 9.66177C19.3264 9.98523 18.7285 10.2327 18.1657 10.4619C18.131 10.4761 18.0964 10.4902 18.0619 10.5042C17.5273 10.7216 17.0267 10.9253 16.5448 11.1769C16.0339 11.4438 15.5675 11.7718 15.0598 12.1289C15.0017 12.1698 14.943 12.211 14.8837 12.2526C14.321 12.6471 13.7052 13.0657 12.9971 13.3753C12.5803 13.5575 12.1 13.9459 11.5094 14.4589C11.4434 14.5162 11.3762 14.5749 11.3079 14.6346C10.8014 15.0771 10.2339 15.5728 9.65438 15.9418C9.35526 16.1323 9.17259 16.3439 9.1043 16.5046C9.07356 16.5769 9.071 16.6259 9.07543 16.6586C9.07953 16.6888 9.09448 16.7433 9.16173 16.8225L8.65263 17.2547L9.16173 16.8225C9.75853 17.5255 10.2611 18.3163 10.7351 19.062C10.9176 19.3492 11.0959 19.6297 11.2736 19.896C11.6296 20.4292 12.0337 20.9516 12.4556 21.4972C12.5579 21.6295 12.6613 21.7632 12.7653 21.8987C13.2881 22.58 13.8198 23.2998 14.2385 24.0592C14.3411 24.2454 14.4283 24.3773 14.5035 24.4658C14.537 24.5053 14.5625 24.5293 14.5795 24.5434C14.6245 24.5215 14.7113 24.4664 14.8419 24.3372L15.3116 24.8119L14.8419 24.3372C15.0384 24.1427 15.205 23.9082 15.4107 23.6147L15.4245 23.5949C15.6154 23.3225 15.8442 22.9958 16.1329 22.7101C16.4539 22.3925 16.8217 22.1506 17.1273 21.9496C17.1582 21.9293 17.1884 21.9094 17.2179 21.8899C17.5597 21.6638 17.8275 21.4738 18.042 21.2271C18.4741 20.7302 19.0289 20.101 19.6482 19.5447C20.2599 18.9953 20.9873 18.468 21.7773 18.2291C22.1919 18.1037 22.5391 17.8132 23.0064 17.4003C23.0224 17.3861 23.0387 17.3717 23.0551 17.3572C23.4739 16.9864 24.011 16.5109 24.7076 16.2943C24.9757 16.2109 26.4058 15.646 27.7573 15.0468C28.4283 14.7493 29.0556 14.4541 29.4922 14.2166C29.4978 14.2136 29.5034 14.2105 29.5089 14.2075C29.3799 14.083 29.2416 13.9563 29.094 13.8212L29.0751 13.8039C28.744 13.5006 28.3678 13.1544 28.0479 12.743C27.9223 12.5814 27.7964 12.4164 27.6697 12.2504C26.9983 11.3707 26.3072 10.4653 25.5474 9.91591C25.1608 9.63635 24.8393 9.25421 24.583 8.94953C24.5404 8.89889 24.4996 8.85039 24.4606 8.80485C24.1537 8.44652 23.9207 8.21874 23.6586 8.10348C23.6118 8.08287 23.4458 8.05477 23.0934 8.13744C22.7662 8.21422 22.3785 8.36208 21.9685 8.55044C21.3227 8.84713 20.6971 9.20724 20.241 9.46978ZM29.9567 13.9281C29.9567 13.9281 29.9559 13.9288 29.9542 13.9303C29.9558 13.9288 29.9567 13.928 29.9567 13.9281Z" fill="white"/>
<path id="Vector 116" d="M62.9494 44.4791C63.628 45.4955 64.221 46.556 65.015 47.4912C65.5759 48.1519 65.103 48.9019 64.3719 49.3674C63.1623 50.1376 61.9908 51.5223 60.9381 51.9825C59.6561 52.543 58.6666 53.5162 57.4319 54.1609C56.3382 54.7321 55.1649 55.0652 54.0889 55.667C53.2505 56.1359 50.7475 57.6967 49.7402 57.2538C48.9106 56.8889 48.4659 55.9041 47.7289 55.3712C46.7256 54.6457 45.8403 53.3747 45.0925 52.4128C44.532 51.6918 43.7511 51.1705 43.1899 50.4765C42.9123 50.1331 48.143 48.0064 48.7617 47.8139C49.8877 47.4638 50.5435 46.2264 51.6971 45.8776C52.9984 45.4841 54.2571 44.0748 55.1217 43.0806C55.6822 42.4361 56.4724 42.1475 57.065 41.5611C57.5565 41.0747 57.8632 40.4217 58.356 39.934C59.1188 39.1793 59.5652 39.5502 60.014 40.3643C60.7986 41.7877 62.0327 43.1062 62.9494 44.4791Z" fill="white"/>
<path id="Vector 116 (Stroke)" fill-rule="evenodd" clip-rule="evenodd" d="M50.8796 57.909C50.4531 58.009 49.9285 58.0661 49.4717 57.8652C48.9042 57.6157 48.5 57.1686 48.193 56.8101C48.1409 56.7493 48.0914 56.6909 48.044 56.635C47.7813 56.325 47.5803 56.0877 47.3379 55.9125C46.4013 55.2352 45.5648 54.1345 44.9026 53.2631C44.7846 53.1079 44.6721 52.9599 44.5656 52.8229C44.3249 52.5133 44.0305 52.2384 43.6908 51.9272C43.6753 51.913 43.6597 51.8987 43.644 51.8844C43.3292 51.5964 42.9739 51.2713 42.671 50.8965C42.5405 50.7351 42.4946 50.538 42.5175 50.356C42.5372 50.1989 42.6034 50.083 42.6463 50.0194C42.7304 49.8944 42.8413 49.8013 42.9149 49.7441C43.0773 49.618 43.3007 49.485 43.5377 49.3561C44.023 49.0922 44.6901 48.7794 45.3694 48.4783C46.7185 47.8801 48.2131 47.2855 48.5637 47.1764C48.9657 47.0514 49.3049 46.7623 49.7771 46.345C49.7865 46.3367 49.796 46.3284 49.8055 46.32C50.2321 45.9427 50.7813 45.4571 51.5042 45.2385C52.0155 45.0839 52.5682 44.7099 53.1273 44.2077C53.6788 43.7124 54.1856 43.1399 54.6181 42.6426C54.9641 42.2447 55.3716 41.9682 55.7132 41.7422C55.7393 41.725 55.7649 41.7081 55.7902 41.6914C56.1154 41.4767 56.3737 41.3062 56.5956 41.0866C56.7915 40.8928 56.9577 40.6587 57.1634 40.365L57.1765 40.3463C57.3677 40.0734 57.597 39.7461 57.8867 39.4595C58.3275 39.0233 58.9015 38.6936 59.5407 38.9369C59.8161 39.0418 60.025 39.2305 60.182 39.4151C60.3405 39.6015 60.4774 39.8213 60.5992 40.0421C60.9652 40.7061 61.4428 41.3572 61.9623 42.0343C62.0589 42.1601 62.1572 42.2873 62.2565 42.4155C62.6807 42.9639 63.1207 43.5327 63.5051 44.1084C63.7197 44.4299 63.9185 44.7428 64.112 45.0474C64.5658 45.7616 64.9908 46.4306 65.5244 47.0592L65.0267 47.4817L65.5244 47.0592C65.9792 47.5949 66.0244 48.219 65.7929 48.7639C65.5822 49.2597 65.1629 49.6559 64.731 49.9309L64.3723 49.3676L64.731 49.9309C64.2431 50.2415 63.758 50.6646 63.2403 51.1162C63.1723 51.1756 63.1036 51.2354 63.0344 51.2956C62.4738 51.7825 61.8419 52.3165 61.206 52.5946C60.6321 52.8455 60.1121 53.1937 59.5509 53.5871C59.4926 53.628 59.4337 53.6695 59.3742 53.7114C58.8762 54.0621 58.3357 54.4427 57.7414 54.7531C57.2009 55.0353 56.6443 55.2616 56.1221 55.4739C56.0832 55.4897 56.0445 55.5055 56.006 55.5212C55.4397 55.7518 54.9128 55.9717 54.4152 56.25C54.3366 56.294 54.2381 56.3507 54.1238 56.4166C53.6703 56.6779 52.9666 57.0833 52.257 57.4093C51.8106 57.6144 51.3312 57.803 50.8796 57.909ZM53.427 55.2763C53.5531 55.2037 53.6662 55.1386 53.7632 55.0843C54.3416 54.7609 54.9394 54.5134 55.5022 54.2842C55.537 54.27 55.5716 54.2559 55.6061 54.2419C56.1406 54.0245 56.6413 53.8208 57.1231 53.5692C57.6341 53.3023 58.1005 52.9743 58.6081 52.6172C58.6663 52.5763 58.7249 52.5351 58.7843 52.4935C59.347 52.099 59.9628 51.6804 60.6709 51.3708C61.0877 51.1886 61.5679 50.8002 62.1586 50.2872C62.2246 50.2299 62.2918 50.1712 62.36 50.1115C62.8666 49.669 63.4341 49.1733 64.0136 48.8043C64.3127 48.6138 64.4954 48.4022 64.5637 48.2415C64.5944 48.1692 64.597 48.1202 64.5925 48.0875C64.5884 48.0573 64.5735 48.0028 64.5062 47.9236L65.0153 47.4914L64.5062 47.9236C63.9094 47.2206 63.4069 46.4298 62.9329 45.684C62.7504 45.3969 62.5721 45.1163 62.3943 44.8501C62.0383 44.3169 61.6343 43.7945 61.2124 43.2489C61.1101 43.1166 61.0067 42.9829 60.9027 42.8474C60.3799 42.1661 59.8481 41.4463 59.4295 40.6869C59.3268 40.5006 59.2397 40.3688 59.1645 40.2803C59.1309 40.2408 59.1055 40.2168 59.0884 40.2026C59.0435 40.2246 58.9567 40.2797 58.8261 40.4089L58.3564 39.9342L58.8261 40.4089C58.6295 40.6034 58.4629 40.8379 58.2573 41.1314L58.2435 41.1511C58.0526 41.4236 57.8238 41.7503 57.5351 42.036C57.2141 42.3536 56.8463 42.5955 56.5406 42.7965C56.5098 42.8168 56.4795 42.8367 56.4501 42.8562C56.1083 43.0823 55.8404 43.2723 55.626 43.519C55.1939 44.0159 54.6391 44.6451 54.0197 45.2014C53.408 45.7508 52.6807 46.2781 51.8907 46.517C51.476 46.6423 51.1288 46.9329 50.6616 47.3458C50.6455 47.36 50.6293 47.3744 50.6129 47.3889C50.1941 47.7596 49.657 48.2352 48.9604 48.4518C48.6923 48.5352 47.2622 49.1001 45.9107 49.6993C45.2397 49.9968 44.6124 50.292 44.1757 50.5295C44.1701 50.5325 44.1646 50.5356 44.1591 50.5386C44.288 50.6631 44.4264 50.7898 44.5739 50.9249L44.5928 50.9422C44.9239 51.2455 45.3002 51.5917 45.6201 52.0031C45.7457 52.1647 45.8716 52.3297 45.9983 52.4957C46.6697 53.3753 47.3608 54.2808 48.1205 54.8302C48.5072 55.1097 48.8286 55.4919 49.0849 55.7966C49.1275 55.8472 49.1683 55.8957 49.2073 55.9412C49.5143 56.2996 49.7473 56.5274 50.0093 56.6426C50.0562 56.6632 50.2222 56.6913 50.5745 56.6087C50.9018 56.5319 51.2894 56.384 51.6995 56.1957C52.3453 55.899 52.9709 55.5389 53.427 55.2763ZM43.7113 50.818C43.7113 50.818 43.712 50.8172 43.7137 50.8158C43.7122 50.8173 43.7113 50.8181 43.7113 50.818Z" fill="white"/>
<path id="Vector 115" d="M42.3347 4.23836C40.1265 4.40193 38.0139 5.47071 35.8431 6.12253C34.4001 6.55583 33.9258 7.96146 33.9258 9.46814C33.9258 10.284 34.1573 12.3209 35.2484 11.9799C36.5456 11.5745 39.3343 11.4747 40.1506 12.7443C40.7053 13.6073 41.4868 14.0568 42.3225 14.5887C42.7261 14.8455 43.5206 15.2834 43.7544 15.6808C45.3768 18.439 48.2321 20.3525 50.962 21.8691C52.3544 22.6427 51.8947 23.7205 50.7678 24.7449C49.2913 26.0872 47.9586 27.5035 46.169 28.4579C45.1302 29.012 44.3853 29.335 45.7686 29.8291C48.9426 30.9626 52.4297 32.3355 55.3303 34.0275C55.6385 34.2073 59.0115 36.1196 59.2496 35.7626C59.9691 34.6833 59.7734 32.9473 60.0261 31.7341C60.6094 28.9343 60.2772 26.0945 61.2274 23.3495C61.7907 21.7222 62.2891 19.9761 63.0232 18.4231C63.1763 18.0993 64.263 15.6836 63.1931 16.1904C62.0052 16.7531 58.5828 17.8363 57.4052 16.8942C56.8956 16.4865 56.57 15.7557 56.0826 15.2682C54.8547 14.0403 53.6639 12.7493 52.4909 11.446C50.8672 9.64186 49.2301 7.95464 47.5159 6.24048C46.9236 5.64818 46.1139 4.00781 45.2347 4.00781C44.2493 4.00781 43.3154 4.16571 42.3347 4.23836Z" fill="#D9FF42"/>
<path id="Vector 115 (Stroke)" fill-rule="evenodd" clip-rule="evenodd" d="M43.4918 4.79815C43.1437 4.83567 42.7811 4.87476 42.3839 4.90418C41.3663 4.97955 40.3508 5.26528 39.2915 5.62883C38.9257 5.75437 38.5462 5.89259 38.1595 6.0334C37.4615 6.28755 36.7404 6.55016 36.035 6.76197C35.0362 7.06189 34.5934 8.04257 34.5934 9.46798C34.5934 9.83878 34.6486 10.4703 34.8097 10.9417C34.8923 11.1835 34.9765 11.3037 35.0251 11.3468C35.0271 11.3487 35.0249 11.3504 35.0238 11.351C35.0235 11.3512 35.0233 11.3513 35.0233 11.3513M43.4918 4.79815C44.0817 4.73456 44.63 4.67546 45.2346 4.67546L43.4918 4.79815ZM43.2417 3.4805C43.8854 3.41226 44.5685 3.33984 45.2346 3.33984C45.6648 3.33984 46.0234 3.53902 46.2896 3.74686C46.5596 3.95768 46.8 4.2288 47.0047 4.48531C47.1692 4.6914 47.3291 4.91219 47.471 5.10806C47.506 5.15643 47.54 5.20329 47.5726 5.24802C47.7494 5.49046 47.8822 5.66234 47.988 5.76811C49.7066 7.48671 51.3526 9.18299 52.9871 10.9991C54.1571 12.2991 55.3389 13.5801 56.5546 14.7958C56.818 15.0592 57.0393 15.3779 57.2187 15.6364C57.2407 15.668 57.262 15.6987 57.2827 15.7283C57.4931 16.0291 57.6524 16.2367 57.8222 16.3725C57.9538 16.4778 58.219 16.5738 58.6684 16.5935C59.1018 16.6125 59.6207 16.557 60.1679 16.4508C61.2646 16.2381 62.3638 15.844 62.9071 15.5867C63.086 15.5019 63.3621 15.4044 63.6618 15.4797C64.0322 15.5728 64.2138 15.8618 64.281 16.0949C64.3403 16.3007 64.331 16.5104 64.3131 16.6651C64.2938 16.8323 64.2555 17.0059 64.2113 17.1694C64.0379 17.8108 63.7063 18.5402 63.6268 18.7083C63.1011 19.8203 62.7051 21.0215 62.3009 22.2473C62.1565 22.6853 62.0111 23.1264 61.8583 23.5678C61.413 24.8542 61.2628 26.1776 61.1548 27.5726C61.1372 27.8006 61.1207 28.0312 61.104 28.264C61.0201 29.4333 60.9324 30.6575 60.6797 31.8702C60.6036 32.2356 60.5751 32.6273 60.5425 33.0767C60.5247 33.3209 60.5057 33.5821 60.4772 33.8654C60.4034 34.598 60.2627 35.4465 59.805 36.1329C59.6411 36.3788 59.3948 36.4457 59.2666 36.4645C59.1327 36.4842 59.008 36.4713 58.9199 36.4572C58.7383 36.4282 58.5367 36.3637 58.3471 36.2931C57.9579 36.1484 57.4784 35.9241 57.0173 35.6934C56.0892 35.2292 55.1558 34.6987 54.9936 34.6041C52.1491 32.9449 48.7106 31.5888 45.5438 30.4578C45.1912 30.3319 44.8519 30.179 44.6292 29.9565C44.5049 29.8322 44.3761 29.6455 44.3493 29.395C44.3222 29.1412 44.4116 28.9331 44.5071 28.7919C44.6715 28.5486 44.9425 28.3755 45.1314 28.2628C45.2992 28.1627 45.5003 28.0562 45.698 27.9516C45.7507 27.9237 45.8031 27.896 45.8546 27.8685C47.2192 27.1408 48.291 26.1386 49.4548 25.0504C49.7356 24.7879 50.0216 24.5205 50.3185 24.2506C50.8609 23.7575 51.1078 23.3627 51.1506 23.1038C51.1674 23.0024 51.153 22.9249 51.1043 22.8435C51.0478 22.7489 50.9193 22.6093 50.6375 22.4527C47.8936 20.9283 44.8982 18.9425 43.1786 16.0192C43.1455 15.963 43.0074 15.8272 42.7237 15.6322C42.5486 15.5119 42.3804 15.4089 42.2185 15.3098C42.1318 15.2568 42.047 15.2048 41.9639 15.1519C41.8954 15.1084 41.826 15.0647 41.7558 15.0205C41.0096 14.5506 40.1833 14.0303 39.5886 13.1053C39.4817 12.9389 39.2851 12.7797 38.9688 12.6498C38.6536 12.5204 38.2591 12.4369 37.8222 12.3991C36.9411 12.323 36.0073 12.4422 35.4474 12.6171C34.944 12.7744 34.4824 12.6516 34.1375 12.3449C33.8357 12.0765 33.6575 11.7004 33.5458 11.3736C33.3184 10.7079 33.2578 9.91301 33.2578 9.46798C33.2578 7.88002 33.7637 6.04944 35.6509 5.48277C36.3261 5.28003 36.9748 5.04343 37.6428 4.79978C38.0379 4.65565 38.4398 4.50905 38.8579 4.36555C39.9497 3.99087 41.0945 3.66041 42.2852 3.57222C42.5884 3.54976 42.9098 3.51568 43.2417 3.4805ZM45.2346 4.67546C45.2439 4.67546 45.3162 4.68133 45.4676 4.79957L45.2346 4.67546ZM45.4676 4.79957C45.6152 4.91482 45.7791 5.09082 45.9608 5.31843L45.4676 4.79957ZM45.9608 5.31843C46.1038 5.49766 46.2401 5.68571 46.3802 5.87902L45.9608 5.31843ZM46.3802 5.87902C46.4176 5.93071 46.4554 5.98278 46.4936 6.03515L46.3802 5.87902ZM46.4936 6.03515C46.6626 6.26687 46.8532 6.52215 47.0436 6.71253L46.4936 6.03515ZM47.0436 6.71253C48.7533 8.42224 50.3814 10.1004 51.9943 11.8926L47.0436 6.71253ZM35.0238 11.351C35.0255 11.3503 35.0317 11.3477 35.049 11.3423C35.7864 11.1119 36.8955 10.9785 37.9372 11.0685C38.4616 11.1138 38.9984 11.2181 39.4762 11.4143C39.9529 11.6101 40.411 11.9146 40.7121 12.383C41.1398 13.0483 41.7203 13.4162 42.505 13.9135C42.5626 13.95 42.6212 13.9871 42.6809 14.0251C42.73 14.0564 42.795 14.0962 42.8697 14.1421C43.0466 14.2506 43.2779 14.3925 43.4802 14.5315C43.7531 14.719 44.1291 15.0008 44.3298 15.342C45.8552 17.9352 48.5702 19.7764 51.2861 21.2852C51.7005 21.5154 52.0368 21.8006 52.2505 22.1578C52.472 22.528 52.5333 22.929 52.4683 23.3218C52.3477 24.0513 51.8013 24.7076 51.2169 25.2389C50.952 25.4797 50.6872 25.7278 50.4196 25.9785C49.2467 27.0774 48.0183 28.2283 46.4831 29.047C46.42 29.0807 46.3599 29.1125 46.3027 29.1428C46.236 29.1781 46.1731 29.2114 46.1138 29.2432C49.2635 30.3713 52.7473 31.7476 55.6666 33.4505C55.8126 33.5357 56.7199 34.0513 57.6148 34.4989C58.0653 34.7242 58.4929 34.9224 58.8128 35.0413C58.8318 35.0484 58.85 35.055 58.8674 35.0612C59.014 34.7059 59.095 34.2602 59.1483 33.7315C59.1679 33.5368 59.1838 33.3223 59.2003 33.0997C59.2378 32.5948 59.2783 32.0484 59.3722 31.5978C59.6049 30.4808 59.6856 29.3614 59.7697 28.1935C59.787 27.9544 59.8043 27.7132 59.8232 27.4695C59.9325 26.0585 60.0913 24.5895 60.5962 23.1309C60.7342 22.7321 60.8707 22.3179 61.0098 21.8958C61.4212 20.6477 61.8553 19.3306 62.4193 18.1375L63.0231 18.4229L62.4193 18.1375C62.4819 18.0051 62.7 17.5218 62.8503 17.0598C62.1877 17.315 61.305 17.5908 60.4223 17.762C59.8183 17.8792 59.1866 17.9531 58.6099 17.9278C58.0493 17.9032 57.445 17.7812 56.9878 17.4155C56.6481 17.1437 56.3899 16.7821 56.1882 16.4937C56.167 16.4634 56.1464 16.4338 56.1262 16.4049C55.9345 16.13 55.7838 15.9139 55.6102 15.7403C54.3702 14.5002 53.1704 13.1993 51.9943 11.8926M63.5164 16.7786C63.5163 16.7788 63.5132 16.78 63.5073 16.7814C63.5136 16.7791 63.5165 16.7783 63.5164 16.7786ZM59.1412 35.1397C59.142 35.1398 59.1409 35.1398 59.1377 35.1394C59.1395 35.1395 59.1407 35.1396 59.1412 35.1397Z" fill="#D9FF42"/>
<path id="Vector 117" d="M31.3333 60.5077C33.5415 60.3442 35.6541 59.2754 37.8249 58.6236C39.2679 58.1903 39.7422 56.7846 39.7422 55.278C39.7422 54.4621 39.5107 52.4252 38.4196 52.7662C37.1224 53.1716 34.3336 53.2714 33.5174 52.0018C32.9627 51.1388 32.1812 50.6893 31.3454 50.1574C30.9419 49.9006 30.1474 49.4627 29.9136 49.0653C28.2911 46.3071 25.4359 44.3936 22.706 42.877C21.3136 42.1034 21.7733 41.0256 22.9001 40.0012C24.3767 38.6589 25.7093 37.2426 27.4989 36.2882C28.5378 35.7341 29.2827 35.4111 27.8994 34.917C24.7254 33.7835 21.2383 32.4106 18.3377 30.7186C18.0295 30.5388 14.6564 28.6265 14.4184 28.9835C13.6989 30.0628 13.8946 31.7988 13.6418 33.012C13.0585 35.8118 13.3908 38.6516 12.4406 41.3966C11.8773 43.0239 11.3789 44.77 10.6447 46.323C10.4917 46.6468 9.40498 49.0625 10.4749 48.5557C11.6628 47.993 15.0851 46.9098 16.2628 47.8519C16.7724 48.2596 17.0979 48.9904 17.5854 49.4779C18.8133 50.7058 20.0041 51.9967 21.1771 53.3001C22.8008 55.1042 24.4379 56.7915 26.152 58.5056C26.7443 59.0979 27.5541 60.7383 28.4332 60.7383C29.4187 60.7383 30.3526 60.5804 31.3333 60.5077Z" fill="#D9FF42"/>
<path id="Vector 117 (Stroke)" fill-rule="evenodd" clip-rule="evenodd" d="M30.1761 59.9479C30.5243 59.9104 30.8869 59.8713 31.2841 59.8419C32.3016 59.7665 33.3172 59.4808 34.3765 59.1173C34.7423 58.9917 35.1218 58.8535 35.5085 58.7127C36.2064 58.4585 36.9276 58.1959 37.633 57.9841C38.6318 57.6842 39.0745 56.7035 39.0745 55.2781C39.0745 54.9073 39.0193 54.2758 38.8583 53.8044C38.7757 53.5626 38.6914 53.4424 38.6429 53.3993C38.6408 53.3974 38.6431 53.3957 38.6442 53.3951C38.6445 53.3949 38.6447 53.3948 38.6447 53.3948M30.1761 59.9479C29.5862 60.0115 29.038 60.0706 28.4334 60.0706L30.1761 59.9479ZM30.4263 61.2656C29.7826 61.3338 29.0995 61.4062 28.4334 61.4062C28.0032 61.4062 27.6445 61.2071 27.3784 60.9992C27.1084 60.7884 26.868 60.5173 26.6633 60.2608C26.4988 60.0547 26.3389 59.8339 26.197 59.638C26.162 59.5897 26.128 59.5428 26.0954 59.4981C25.9185 59.2556 25.7858 59.0838 25.68 58.978C23.9614 57.2594 22.3154 55.5631 20.6809 53.747C19.5109 52.447 18.3291 51.166 17.1134 49.9503C16.85 49.6869 16.6287 49.3682 16.4492 49.1097C16.4273 49.0781 16.406 49.0474 16.3853 49.0178C16.1749 48.717 16.0156 48.5094 15.8458 48.3735C15.7142 48.2682 15.449 48.1723 14.9996 48.1526C14.5662 48.1336 14.0473 48.1891 13.5 48.2952C12.4034 48.508 11.3041 48.9021 10.7609 49.1594C10.5819 49.2442 10.3059 49.3417 10.0061 49.2664C9.63576 49.1733 9.45413 48.8843 9.38699 48.6512C9.32767 48.4454 9.337 48.2357 9.35484 48.081C9.37412 47.9138 9.41249 47.7402 9.45669 47.5767C9.63008 46.9353 9.96169 46.2059 10.0411 46.0378C10.5668 44.9258 10.9629 43.7246 11.367 42.4988C11.5114 42.0608 11.6569 41.6196 11.8097 41.1783C12.2549 39.8919 12.4051 38.5685 12.5131 37.1735C12.5308 36.9455 12.5473 36.7149 12.564 36.4821C12.6478 35.3128 12.7356 34.0886 12.9882 32.8759C13.0644 32.5105 13.0928 32.1188 13.1255 31.6694C13.1433 31.4252 13.1622 31.164 13.1908 30.8807C13.2646 30.1481 13.4053 29.2996 13.8629 28.6132C14.0268 28.3673 14.2732 28.3004 14.4014 28.2816C14.5353 28.2619 14.66 28.2748 14.7481 28.2889C14.9297 28.3179 15.1313 28.3824 15.3209 28.453C15.7101 28.5977 16.1896 28.822 16.6506 29.0526C17.5788 29.5169 18.5122 30.0474 18.6744 30.142C21.5188 31.8012 24.9574 33.1573 28.1241 34.2883C28.4768 34.4142 28.8161 34.5671 29.0387 34.7896C29.163 34.9139 29.2919 35.1006 29.3187 35.3511C29.3458 35.6048 29.2563 35.813 29.1609 35.9542C28.9964 36.1975 28.7255 36.3706 28.5366 36.4833C28.3688 36.5834 28.1676 36.6899 27.9699 36.7945C27.9173 36.8224 27.8648 36.8501 27.8134 36.8776C26.4488 37.6053 25.377 38.6075 24.2131 39.6957C23.9324 39.9582 23.6463 40.2256 23.3495 40.4955C22.8071 40.9886 22.5602 41.3834 22.5173 41.6423C22.5006 41.7436 22.5149 41.8212 22.5637 41.9026C22.6202 41.9971 22.7486 42.1368 23.0305 42.2933C25.7744 43.8178 28.7698 45.8036 30.4894 48.7269C30.5224 48.7831 30.6605 48.9189 30.9442 49.1139C31.1194 49.2342 31.2876 49.3372 31.4495 49.4363C31.5361 49.4893 31.621 49.5412 31.7041 49.5941C31.7726 49.6377 31.842 49.6814 31.9122 49.7256C32.6584 50.1955 33.4847 50.7158 34.0793 51.6408C34.1863 51.8072 34.3828 51.9663 34.6992 52.0963C35.0143 52.2257 35.4089 52.3092 35.8458 52.347C36.7268 52.4231 37.6607 52.3039 38.2205 52.129C38.7239 51.9717 39.1856 52.0945 39.5305 52.4012C39.8323 52.6696 40.0105 53.0457 40.1221 53.3725C40.3496 54.0382 40.4102 54.8331 40.4102 55.2781C40.4102 56.8661 39.9043 58.6966 38.0171 59.2633C37.3419 59.4661 36.6932 59.7027 36.0252 59.9463C35.6301 60.0904 35.2282 60.237 34.81 60.3805C33.7183 60.7552 32.5734 61.0857 31.3828 61.1739C31.0796 61.1963 30.7582 61.2304 30.4263 61.2656ZM28.4334 60.0706C28.4241 60.0706 28.3518 60.0648 28.2004 59.9465L28.4334 60.0706ZM28.2004 59.9465C28.0528 59.8313 27.8888 59.6553 27.7072 59.4277L28.2004 59.9465ZM27.7072 59.4277C27.5642 59.2484 27.4279 59.0604 27.2878 58.8671L27.7072 59.4277ZM27.2878 58.8671C27.2503 58.8154 27.2126 58.7633 27.1744 58.7109L27.2878 58.8671ZM27.1744 58.7109C27.0054 58.4792 26.8148 58.2239 26.6244 58.0336L27.1744 58.7109ZM26.6244 58.0336C24.9147 56.3238 23.2866 54.6457 21.6736 52.8535L26.6244 58.0336ZM38.6442 53.3951C38.6425 53.3958 38.6363 53.3984 38.6189 53.4038C37.8816 53.6342 36.7725 53.7676 35.7308 53.6776C35.2063 53.6323 34.6696 53.528 34.1917 53.3317C33.7151 53.136 33.257 52.8315 32.9558 52.363C32.5282 51.6978 31.9477 51.3299 31.1629 50.8326C31.1054 50.7961 31.0468 50.759 30.9871 50.721C30.938 50.6897 30.873 50.6498 30.7982 50.604C30.6213 50.4955 30.39 50.3536 30.1878 50.2146C29.9149 50.0271 29.5389 49.7453 29.3382 49.4041C27.8128 46.8109 25.0977 44.9697 22.3818 43.4609C21.9674 43.2307 21.6312 42.9455 21.4175 42.5883C21.196 42.2181 21.1347 41.8171 21.1996 41.4243C21.3203 40.6948 21.8666 40.0385 22.4511 39.5072C22.7159 39.2664 22.9807 39.0183 23.2484 38.7676C24.4213 37.6687 25.6497 36.5178 27.1848 35.6991C27.248 35.6654 27.3081 35.6336 27.3653 35.6033C27.432 35.568 27.4949 35.5347 27.5542 35.5029C24.4045 34.3748 20.9206 32.9985 18.0014 31.2956C17.8553 31.2104 16.9481 30.6948 16.0532 30.2472C15.6027 30.0218 15.175 29.8237 14.8552 29.7047C14.8362 29.6977 14.818 29.691 14.8006 29.6848C14.654 30.0402 14.573 30.4859 14.5197 31.0146C14.5001 31.2093 14.4841 31.4238 14.4676 31.6464C14.4302 32.1513 14.3897 32.6977 14.2958 33.1483C14.0631 34.2653 13.9824 35.3847 13.8982 36.5526C13.881 36.7917 13.8636 37.0329 13.8448 37.2766C13.7355 38.6876 13.5767 40.1566 13.0718 41.6152C12.9337 42.014 12.7972 42.4282 12.6581 42.8503C12.2468 44.0984 11.8127 45.4155 11.2486 46.6086L10.6449 46.3232L11.2486 46.6086C11.186 46.741 10.968 47.2243 10.8176 47.6863C11.4802 47.431 12.3629 47.1553 13.2456 46.9841C13.8497 46.8669 14.4814 46.793 15.0581 46.8183C15.6187 46.8429 16.2229 46.9649 16.6801 47.3306C17.0199 47.6024 17.2781 47.964 17.4798 48.2524C17.501 48.2827 17.5216 48.3123 17.5418 48.3412C17.7334 48.616 17.8842 48.8322 18.0578 49.0058C19.2978 50.2459 20.4976 51.5468 21.6736 52.8535M10.1516 47.9675C10.1517 47.9673 10.1548 47.9661 10.1606 47.9647C10.1544 47.967 10.1514 47.9678 10.1516 47.9675ZM14.5268 29.6064C14.526 29.6063 14.5271 29.6063 14.5303 29.6067C14.5285 29.6066 14.5273 29.6065 14.5268 29.6064Z" fill="#D9FF42"/>
</g>
</g>
</g>
</svg>
