<svg width="75" height="65" viewBox="0 0 75 65" fill="none" xmlns="http://www.w3.org/2000/svg">
<g id="cleanup-icon">
<g id="Group 109">
<path id="Vector 113" d="M29.2734 9.16265C29.9831 10.1237 31.1765 12.9105 32.6737 13.0607C32.6737 13.7794 32.2172 16.5478 31.5808 17.0074C30.8806 17.5131 31.1042 19.1365 30.7846 19.8578C30.2958 20.9611 30.5189 22.218 29.6242 23.2564C28.5605 24.491 27.5769 25.9463 26.3048 27.0448C25.1975 28.0009 23.6911 28.5562 23.0933 29.9439C22.8035 30.6167 22.9584 31.5289 22.9584 32.234C22.9584 33.8014 23.1636 35.4342 22.4726 36.9116C20.8827 40.311 16.414 41.007 13.4994 43.1119C11.0727 44.8644 8.87109 47.8414 8.87109 50.6643C8.87109 53.2179 9.19349 55.4484 11.6508 56.9133C13.9333 58.2741 16.5891 59.1059 19.3016 59.1059C22.2867 59.1059 25.294 58.8867 28.3018 58.8867C31.6522 58.8867 35.273 58.5434 38.5839 58.9963C41.1946 59.3534 43.3808 60.2388 45.8434 61.128C48.2361 61.992 50.9005 61.7371 53.4268 61.7371C54.8122 61.7371 55.6292 61.4056 56.5978 60.5312C57.9477 59.3125 58.8236 57.7188 59.8228 56.2555C61.0867 54.4045 62.3987 52.449 63.0342 50.3354C64.079 46.8606 65.6003 42.667 64.1947 39.153C62.9919 36.146 60.1252 33.9007 58.5409 31.0403C57.2844 28.7717 57.9151 26.3796 57.3939 23.9751C57.2294 23.2158 56.8049 21.8047 56.0986 21.283C55.0934 20.5406 53.6707 20.4011 52.5902 19.736C50.5211 18.4625 48.3606 18.2047 46.0863 17.4459C43.7406 16.6633 38.0542 16.4066 38.2601 13.0607C38.3238 12.0243 39.6049 10.9695 40.3246 10.3199C41.8917 8.90516 43.6231 7.9336 44.6695 6.04424C45.0629 5.33403 44.6359 4.70927 44.5751 4.02215C44.5222 3.42608 43.5855 3.6149 43.0638 3.63235C41.2343 3.69352 39.2631 4.93466 37.9092 5.93461C36.4694 6.99806 35.9287 8.11042 35.3994 9.72299C35.0221 10.8726 34.9646 10.2412 34.131 9.6499C33.3757 9.11417 32.9351 8.62419 32.6737 7.79835C32.1791 6.23549 30.5638 4.75586 29.5162 3.46181C28.8276 2.61109 26.1159 2.96961 26.1159 4.07087C26.1159 4.97167 27.1317 5.92591 27.5732 6.70203C28.0688 7.57342 28.6732 8.34999 29.2734 9.16265Z" fill="white"/>
<path id="Vector 172" d="M40.0701 29.7018C40.6938 28.0801 40.67 26.1169 41.2448 24.3705C41.6337 23.9487 42.7372 24.5512 43.1423 24.5512C44.4395 24.5512 43.7638 26.0017 43.5841 26.8102C43.4052 27.6151 43.3177 28.4723 43.0921 29.2901C42.9289 29.882 42.6905 30.8133 42.6905 31.4186C42.6905 33.5757 43.4607 35.623 44.7588 37.2921C45.0728 37.6958 45.0399 38.8683 45.0399 39.3703V41.3583V41.4222C45.0399 43.1594 45.04 44.8818 44.8492 46.5992C44.7923 47.1108 44.8145 48.011 44.1363 48.045C43.2465 48.0894 42.3199 47.9445 41.4355 48.055C40.58 48.1619 39.744 48.2257 38.8552 48.2257C37.7741 48.2257 36.8103 47.8979 35.783 47.8642C33.9865 47.8053 32.5414 46.9045 33.0722 45.1133C33.4575 43.8126 33.7477 42.5088 34.0159 41.1675C34.217 40.162 34.509 39.1043 34.779 38.1053C34.8961 37.6721 35.1917 36.2249 35.5521 35.9366C35.8919 35.6648 36.4774 34.9726 36.7267 34.6314C37.1107 34.1061 37.6598 33.6582 38.1324 33.1857C38.7169 32.6012 39.1445 32.1991 39.5279 31.509C39.8394 30.9483 39.8474 30.2807 40.0701 29.7018Z" fill="#4299FF" stroke="#4299FF" stroke-width="1.44544" stroke-linecap="round"/>
</g>
</g>
</svg>
