<svg width="75" height="65" viewBox="0 0 75 65" fill="none" xmlns="http://www.w3.org/2000/svg">
<g id="tons-icon">
<g id="Group 108">
<path id="Vector 109" d="M40.5445 18.4528C34.4402 18.5574 28.3681 18.36 22.2785 18.1582C22.2785 18.5784 22.3068 19.1415 22.1829 19.4187C21.9086 20.0321 22.3501 20.8436 22.1938 21.5251C22.0028 22.3586 22.0185 23.0111 21.6688 23.7978C21.3265 24.5679 20.7197 25.189 20.3816 25.9527C19.5288 27.8792 18.5143 29.9029 17.4601 31.727C15.7441 34.6961 14.4414 37.9045 12.7941 40.9187C11.9338 42.493 11.2009 44.1345 10.3891 45.7334C9.53009 47.4253 8.53485 49.0711 7.86556 50.8512C7.20803 52.6 6.53631 54.3609 5.62994 56.0026C5.48594 56.2634 4.19372 58.0833 5.02023 58.149C9.38536 58.4961 13.7791 58.9613 18.163 59.0581C24.1096 59.1895 30.1309 59.1311 36.0479 59.7904C43.1225 60.5788 50.4106 60.4301 57.5234 60.4301C61.1473 60.4301 64.7727 60.4015 68.3966 60.4301C69.0665 60.4354 69.927 60.6992 70.5814 60.548C70.9241 60.4688 70.4897 59.7141 70.429 59.5631C68.1903 54.0002 66.6908 48.2104 64.7299 42.5517C63.7538 39.7352 62.6569 36.9627 61.9099 34.0754C61.3405 31.8744 60.8877 29.5983 60.1993 27.4341C59.5043 25.249 58.8443 22.9844 58.4041 20.7339C58.2733 20.0652 58.0263 19.476 57.8282 18.8316C57.7248 18.4953 57.3765 18.6127 57.0661 18.6127C55.3145 18.6127 53.5932 18.4612 51.8412 18.4612C48.0625 18.4612 44.3295 18.3879 40.5445 18.4528Z" fill="white"/>
<path id="Vector 109 (Stroke)" fill-rule="evenodd" clip-rule="evenodd" d="M21.6496 17.5078L22.3007 17.5294C28.3925 17.7312 34.449 17.928 40.5351 17.8237C43.0135 17.7813 45.4771 17.7979 47.9369 17.8145C49.2393 17.8233 50.5406 17.8321 51.8425 17.8321C52.7323 17.8321 53.6122 17.8704 54.4762 17.9081L54.4826 17.9084C55.3531 17.9464 56.2076 17.9836 57.0674 17.9836C57.106 17.9836 57.1442 17.9807 57.2079 17.9758C57.2226 17.9747 57.2387 17.9735 57.2564 17.9722C57.3337 17.9665 57.4565 17.9579 57.5834 17.9695C57.7137 17.9814 57.8965 18.018 58.0709 18.1396C58.2562 18.2687 58.3716 18.4512 58.432 18.6475C58.484 18.8167 58.5454 18.9971 58.6097 19.186C58.7604 19.6286 58.9267 20.1173 59.0239 20.614C59.4572 22.829 60.1086 25.0666 60.8013 27.2442C61.263 28.6958 61.6253 30.2174 61.9798 31.7064C62.1584 32.4565 62.335 33.1982 62.5214 33.9186C63.067 36.0276 63.7984 38.0644 64.5416 40.1342C64.8044 40.8659 65.0686 41.6018 65.3267 42.3464C66.0914 44.5533 66.7789 46.7538 67.4626 48.9426C68.5557 52.4417 69.6395 55.9109 71.015 59.3289C71.0139 59.3263 71.0144 59.3273 71.0181 59.3353C71.0213 59.3421 71.0268 59.3538 71.0359 59.3725C71.0514 59.4046 71.0744 59.4518 71.0981 59.5021C71.1453 59.6022 71.2067 59.7389 71.255 59.8821C71.2976 60.0085 71.3571 60.2152 71.3404 60.4316C71.3314 60.5481 71.2972 60.7095 71.1862 60.8616C71.0666 61.0255 70.8986 61.1229 70.7247 61.1631C70.2783 61.2663 69.8004 61.2221 69.4178 61.1742C69.3001 61.1595 69.1914 61.1445 69.0897 61.1305C68.8206 61.0934 68.6003 61.0631 68.393 61.0614C65.9802 61.0424 63.5695 61.0488 61.1551 61.0551C59.9461 61.0583 58.7362 61.0615 57.5247 61.0615C56.5564 61.0615 55.5837 61.0643 54.6076 61.0671C48.4337 61.0848 42.1264 61.1028 35.9794 60.4179C31.3363 59.9005 26.6343 59.8282 21.9201 59.7557C20.6641 59.7364 19.4072 59.717 18.1504 59.6893C14.7934 59.6151 11.4248 59.3259 8.09101 59.0396C7.04733 58.95 6.00705 58.8607 4.9716 58.7784C4.74418 58.7603 4.48594 58.6693 4.30489 58.4338C4.13679 58.2152 4.1115 57.9689 4.11812 57.7991C4.13072 57.4757 4.27182 57.1327 4.39418 56.8776C4.52736 56.5998 4.69013 56.3238 4.82259 56.109C4.88336 56.0105 4.93968 55.9218 4.98465 55.8509L4.99768 55.8304C5.02161 55.7927 5.04084 55.7623 5.0561 55.7377C5.06363 55.7256 5.06942 55.7161 5.07377 55.7088C5.07792 55.7019 5.07958 55.699 5.07958 55.699C5.96066 54.1031 6.61773 52.3837 7.27696 50.6305C7.76907 49.3216 8.442 48.064 9.08969 46.8535C9.344 46.3782 9.59441 45.9102 9.82846 45.4492C10.1277 44.8598 10.4231 44.2495 10.7216 43.6328C11.2102 42.6235 11.707 41.5971 12.2424 40.6176C12.9806 39.2667 13.6492 37.8757 14.326 36.4678C14.3955 36.3232 14.465 36.1785 14.5348 36.0336C15.2807 34.484 16.0445 32.9201 16.9157 31.4127C17.9575 29.6102 18.9619 27.6069 19.8066 25.6986C19.9991 25.2639 20.2628 24.8774 20.4909 24.5432L20.5043 24.5235C20.7465 24.1686 20.9501 23.8672 21.0942 23.5429C21.2396 23.2158 21.312 22.9123 21.3712 22.572C21.3879 22.4763 21.4043 22.3712 21.4219 22.2592C21.4632 21.9946 21.5106 21.6919 21.5809 21.3854C21.624 21.1972 21.5897 20.9763 21.5289 20.5845L21.522 20.5402C21.4691 20.199 21.3857 19.6615 21.6089 19.1625C21.6085 19.1635 21.6085 19.1632 21.6089 19.1625C21.6104 19.1577 21.6193 19.1306 21.6282 19.0713C21.6381 19.0051 21.6449 18.9212 21.6487 18.8199C21.654 18.6763 21.6526 18.534 21.6511 18.3841C21.6503 18.3113 21.6496 18.2367 21.6496 18.1593V17.5078ZM22.9101 18.8107C22.9096 18.8295 22.909 18.8481 22.9083 18.8664C22.8999 19.0932 22.8766 19.4153 22.7596 19.677C22.7092 19.7896 22.708 19.9624 22.7682 20.3509C22.7729 20.3814 22.7782 20.4138 22.7837 20.4479C22.8349 20.7638 22.9102 21.2277 22.8095 21.667C22.7491 21.9303 22.7138 22.1572 22.6761 22.3996C22.6569 22.5228 22.6371 22.6501 22.6131 22.7882C22.545 23.1792 22.4504 23.5953 22.246 24.0549C22.0515 24.4925 21.7869 24.8803 21.5585 25.215L21.5455 25.234C21.3031 25.5892 21.1011 25.8885 20.9593 26.2089C20.0984 28.1537 19.0738 30.1977 18.0071 32.0434C17.1623 33.5051 16.4168 35.03 15.6705 36.5803C15.6006 36.7255 15.5307 36.871 15.4607 37.0166C14.7863 38.4198 14.1034 39.8407 13.3485 41.222C12.8231 42.1833 12.3559 43.1495 11.881 44.1315C11.5801 44.7537 11.2761 45.3822 10.9524 46.0198C10.6913 46.5342 10.4244 47.0328 10.1611 47.5248C9.52915 48.7056 8.91793 49.8477 8.45681 51.0741C7.80097 52.8183 7.11466 54.6208 6.18301 56.3083C6.15606 56.3571 6.09457 56.4543 6.02692 56.5612C5.98312 56.6305 5.93672 56.7038 5.89544 56.7707C5.77094 56.9726 5.63531 57.2045 5.53075 57.4226C5.50787 57.4703 5.48812 57.5141 5.47113 57.5539C6.39092 57.6285 7.30953 57.7073 8.22722 57.7861C11.5522 58.0715 14.8652 58.3559 18.1782 58.4291C19.4156 58.4564 20.6595 58.4755 21.9076 58.4946C26.6294 58.5671 31.4099 58.6404 36.119 59.1651C42.1887 59.8415 48.4163 59.8239 54.5951 59.8065C55.5731 59.8037 56.5499 59.801 57.5247 59.801C58.7291 59.801 59.9354 59.7978 61.1427 59.7946C63.5612 59.7883 65.9838 59.7819 68.4029 59.801C68.6995 59.8033 69.0383 59.8502 69.3304 59.8907C69.4166 59.9026 69.4987 59.914 69.5745 59.9235C69.6999 59.9392 69.8143 59.951 69.9189 59.9581C69.9129 59.9456 69.9069 59.9333 69.9008 59.9208L69.8997 59.9184C69.8853 59.8886 69.8623 59.841 69.8456 59.7995C68.4575 56.3501 67.3407 52.7787 66.2321 49.2334C65.5506 47.054 64.8722 44.8845 64.1357 42.7591C63.888 42.0443 63.6303 41.3268 63.3713 40.6057C62.6223 38.5201 61.8624 36.4041 61.3011 34.2343C61.1014 33.4622 60.9188 32.6948 60.7377 31.9332C60.3906 30.4741 60.0485 29.036 59.6001 27.6262C58.9026 25.4335 58.2341 23.1419 57.7869 20.856C57.7061 20.4429 57.5858 20.0914 57.4498 19.6938C57.4 19.5483 57.3481 19.3966 57.2952 19.2334C57.2325 19.2382 57.1484 19.2441 57.0674 19.2441C56.1779 19.2441 55.2983 19.2057 54.4344 19.168L54.4277 19.1677C53.5572 19.1297 52.7025 19.0926 51.8425 19.0926C50.5221 19.0926 49.2122 19.0837 47.9062 19.0749C45.457 19.0583 43.0215 19.0418 40.5567 19.084C34.6522 19.1852 28.7804 19.0046 22.9101 18.8107ZM70.0835 60.3695C70.0835 60.3693 70.0835 60.3689 70.0834 60.3685L70.0835 60.3695ZM5.37765 57.8482C5.37765 57.8483 5.37766 57.8481 5.37765 57.8482V57.8482Z" fill="white"/>
<path id="Vector 148 (Stroke)" fill-rule="evenodd" clip-rule="evenodd" d="M37.4002 5.59431C36.9428 5.81479 36.5023 6.15537 35.917 6.66929C35.5821 6.96334 35.2172 7.26186 34.8633 7.55127C34.6222 7.74854 34.3862 7.94157 34.1684 8.12607C33.605 8.60338 33.0865 9.08458 32.6437 9.63236C32.0694 10.3427 31.6262 11.1731 31.1598 12.0471C31.1251 12.1121 31.0902 12.1774 31.0552 12.243C30.2508 13.7469 30.0153 15.7388 29.9238 17.5696C29.9064 17.9173 29.6105 18.185 29.2628 18.1676C28.9152 18.1502 28.6475 17.8543 28.6649 17.5067C28.7569 15.6652 28.9953 13.4216 29.9437 11.6484C29.9816 11.5777 30.0197 11.5062 30.0581 11.4341C30.5122 10.582 31.01 9.64812 31.6635 8.83986C32.1793 8.2019 32.7668 7.6615 33.3536 7.16433C33.6125 6.945 33.8595 6.74334 34.1016 6.54568C34.4327 6.27535 34.7546 6.01249 35.0853 5.7221C35.6824 5.19786 36.231 4.75865 36.8528 4.45887C37.4909 4.15125 38.1717 4.00586 39.0221 4.00586C39.9872 4.00586 40.945 4.5193 41.694 5.1406C42.4515 5.76895 43.1003 6.59364 43.4183 7.37629C43.6258 7.88709 43.9055 8.37078 44.2114 8.89969C44.2664 8.9947 44.3222 9.09118 44.3785 9.18953C44.7369 9.81475 45.1108 10.5046 45.3242 11.2729C45.3685 11.4326 45.4126 11.6088 45.4562 11.7834C45.4611 11.803 45.466 11.8225 45.4708 11.8421C45.5202 12.0394 45.5703 12.2371 45.6251 12.4303C45.7382 12.8285 45.8574 13.1532 45.9918 13.3682C46.2141 13.7238 46.3495 14.1312 46.4519 14.4856C46.4935 14.6299 46.5287 14.7607 46.5616 14.8829C46.6177 15.0914 46.6671 15.2748 46.7303 15.4573C46.851 15.806 46.9514 16.1659 47.0451 16.5051L47.0583 16.5529C47.1489 16.8808 47.2339 17.1884 47.3313 17.4806C47.4413 17.8109 47.2629 18.1678 46.9327 18.2779C46.6025 18.3879 46.2455 18.2095 46.1355 17.8792C46.0273 17.5546 45.9342 17.2176 45.846 16.8982C45.8407 16.8791 45.8354 16.8599 45.8302 16.8409C45.7354 16.4981 45.6449 16.175 45.5392 15.8697C45.4626 15.6485 45.392 15.3874 45.3275 15.1493C45.2973 15.0374 45.2684 14.9306 45.2409 14.8354C45.1445 14.5016 45.0476 14.2358 44.9229 14.0362C44.6887 13.6616 44.531 13.1915 44.4126 12.7746C44.3517 12.5603 44.2974 12.3453 44.248 12.148C44.2432 12.1286 44.2384 12.1095 44.2337 12.0906C44.1892 11.9126 44.1493 11.753 44.1097 11.6103C43.9421 11.0071 43.64 10.4358 43.2849 9.81633C43.2341 9.72763 43.1819 9.63751 43.1289 9.54605C42.8242 9.02007 42.4939 8.44987 42.2505 7.85071C42.0277 7.30237 41.5253 6.63836 40.8892 6.11076C40.2447 5.57611 39.5666 5.26635 39.0221 5.26635C38.3297 5.26635 37.8412 5.38168 37.4002 5.59431Z" fill="white"/>
<path id="Vector 149 (Stroke)" fill-rule="evenodd" clip-rule="evenodd" d="M36.6682 4.18203C37.4745 3.77888 38.4125 3.69254 39.2104 3.72209C39.6724 3.7392 40.0794 3.94491 40.3663 4.09902C40.4344 4.1356 40.4966 4.16963 40.5542 4.20112C40.7812 4.32532 40.9358 4.40989 41.093 4.45481C41.2942 4.51228 41.5033 4.6275 41.6784 4.73704C41.8651 4.85395 42.0619 4.99578 42.2477 5.14155C42.6063 5.42286 42.983 5.76522 43.1818 6.02079C43.2515 6.11045 43.306 6.20223 43.3455 6.27162C43.3662 6.30795 43.3813 6.33515 43.3944 6.3588C43.4122 6.39097 43.4264 6.4166 43.4462 6.44977C43.4749 6.49783 43.4926 6.52052 43.4998 6.52914C43.8135 6.70057 43.9605 6.9359 44.0466 7.08517C44.0946 7.16834 44.1139 7.19926 44.1195 7.20861C44.5685 7.52056 44.7959 8.001 44.9455 8.33095C44.9671 8.37865 44.9873 8.42372 45.0065 8.46635C45.1468 8.77822 45.2284 8.95973 45.348 9.08629C45.7975 9.56228 46.1321 10.2082 46.3847 10.8243C46.6411 11.4495 46.8339 12.0971 46.9775 12.6101C47.4975 14.4671 47.7885 16.2961 47.7885 18.2464C47.7885 18.5945 47.5063 18.8767 47.1583 18.8767C46.8102 18.8767 46.528 18.5945 46.528 18.2464C46.528 16.4274 46.2575 14.7134 45.7637 12.9499C45.6233 12.4486 45.4462 11.858 45.2184 11.3025C44.9869 10.7378 44.723 10.2603 44.4316 9.95177C44.1519 9.65569 43.9738 9.25109 43.8487 8.96692C43.8305 8.92556 43.8135 8.88676 43.7973 8.85121C43.6411 8.50643 43.5311 8.3337 43.3985 8.24249C43.1527 8.07352 43.0245 7.84117 42.9697 7.7418C42.9639 7.73124 42.9589 7.72218 42.9547 7.71486C42.9129 7.64251 42.9053 7.63932 42.897 7.63585C42.8959 7.63538 42.8948 7.6349 42.8935 7.63425C42.609 7.48365 42.4507 7.24123 42.364 7.09602C42.3361 7.04926 42.3024 6.98888 42.2771 6.94344C42.2663 6.92401 42.257 6.90731 42.2503 6.89558C42.2187 6.84006 42.1998 6.81142 42.1868 6.79466C42.0842 6.66275 41.8049 6.39625 41.4697 6.13327C41.3086 6.0069 41.149 5.89272 41.0096 5.80552C40.8585 5.71094 40.7717 5.67394 40.7468 5.6668C40.4391 5.57891 40.1287 5.40727 39.8963 5.27879C39.851 5.25372 39.8086 5.23029 39.7698 5.20945C39.4823 5.05502 39.3052 4.98696 39.1637 4.98172C38.466 4.95588 37.7697 5.04052 37.2319 5.30945C36.1223 5.86425 35.1663 6.52748 34.178 7.3746C34.1399 7.4073 34.1014 7.44016 34.0628 7.47321C33.6381 7.83668 33.1881 8.22171 32.7864 8.63947C32.3458 9.09768 32.0067 9.5523 31.8355 9.99733C31.6016 10.6055 31.2879 11.1783 30.998 11.7074C30.9426 11.8085 30.8881 11.9081 30.8352 12.006C30.495 12.6351 30.2055 13.2209 30.0471 13.8544C29.9748 14.1434 29.8745 14.4405 29.7865 14.7013C29.7468 14.8189 29.7096 14.929 29.6786 15.0277C29.5695 15.3749 29.4988 15.6818 29.4988 16.0094V18.2464C29.4988 18.5945 29.2166 18.8767 28.8685 18.8767C28.5205 18.8767 28.2383 18.5945 28.2383 18.2464V16.0094C28.2383 15.495 28.3514 15.0467 28.476 14.6499C28.5243 14.4962 28.5708 14.3594 28.6148 14.2295C28.693 13.9992 28.7637 13.7907 28.8242 13.5487C29.0237 12.7508 29.3801 12.0469 29.7264 11.4065C29.7859 11.2964 29.8448 11.1886 29.9028 11.0826C30.1922 10.5535 30.4582 10.067 30.6591 9.54484C30.9184 8.87061 31.3903 8.27278 31.8778 7.76581C32.3245 7.30128 32.8206 6.87696 33.2387 6.51936C33.2792 6.4848 33.3188 6.45086 33.3577 6.41756C34.409 5.51643 35.45 4.79111 36.6682 4.18203Z" fill="white"/>
</g>
<path id="Union" fill-rule="evenodd" clip-rule="evenodd" d="M31.6129 35.2422C30.6293 35.2422 29.832 36.0395 29.832 37.023C29.832 38.0065 30.6293 38.8038 31.6129 38.8038H35.8119C35.7032 39.2725 35.5669 39.7658 35.4174 40.3067L35.4173 40.3072C35.3834 40.4297 35.3489 40.5546 35.3138 40.6823C35.0008 41.8229 34.6484 43.1816 34.6484 44.5878C34.6484 45.5714 35.4457 46.3687 36.4293 46.3687C37.4128 46.3687 38.2101 45.5714 38.2101 44.5878C38.2101 43.7171 38.431 42.7816 38.7485 41.625C38.7817 41.5038 38.8163 41.3794 38.8517 41.2522L38.8518 41.2517C39.0585 40.5084 39.2918 39.6692 39.4469 38.8038H43.7626C44.7461 38.8038 45.5434 38.0065 45.5434 37.023C45.5434 36.0395 44.7461 35.2422 43.7626 35.2422H31.6129Z" fill="#AE42FF"/>
</g>
</svg>
