<svg width="25" height="16" viewBox="0 0 25 16" fill="none" xmlns="http://www.w3.org/2000/svg">
<path fill-rule="evenodd" clip-rule="evenodd" d="M14.7195 5.15917C15.481 5.78742 16.2654 6.43466 17.1059 7.04461C17.2151 7.14232 17.3251 7.23947 17.4356 7.33575C17.5404 7.42704 17.6467 7.51847 17.7544 7.6097C16.0068 7.71215 14.1607 7.65494 12.2554 7.52614C11.0377 7.44383 9.7801 7.33001 8.51637 7.21563L8.51631 7.21563C6.06452 6.99372 3.58973 6.76974 1.33929 6.76974C0.599621 6.76974 0 7.36936 0 8.10903C0 8.8487 0.599621 9.44832 1.33929 9.44832C3.47773 9.44832 5.72915 9.65314 8.09383 9.86827L8.09387 9.86828C9.38693 9.98591 10.7139 10.1066 12.0747 10.1986C13.695 10.3082 15.3429 10.3738 16.9717 10.3251C16.6297 10.4864 16.2941 10.6486 15.9643 10.8086L15.7675 10.904L15.7675 10.904C14.3873 11.574 13.1123 12.1928 11.7599 12.6436C11.0582 12.8775 10.679 13.636 10.9129 14.3377C11.1468 15.0394 11.9052 15.4186 12.6069 15.1847C14.1306 14.6769 15.5508 13.9871 16.8929 13.3353L17.1332 13.2186C18.5722 12.5206 19.9413 11.8718 21.4243 11.4155C22.2685 11.1558 23.0049 10.8772 23.4894 10.5153C23.6858 10.3687 23.9633 10.1192 24.1302 9.74221C24.2063 9.61473 24.2623 9.47234 24.2931 9.31847C24.3658 8.95467 24.2838 8.59584 24.0923 8.31021C24.1221 8.11504 24.1091 7.91025 24.0461 7.70913C23.8253 7.0032 23.074 6.60998 22.368 6.83084C22.3145 6.84758 22.2609 6.86402 22.207 6.88017C22.0537 6.80545 21.8948 6.72961 21.7359 6.65375L21.7235 6.64783C21.4501 6.51738 21.1693 6.38328 20.8796 6.23846C20.1393 5.86827 19.4588 5.43764 18.7931 4.95982C18.2822 4.49973 17.7801 4.02204 17.2784 3.54472L17.2783 3.54458L17.0983 3.3734C16.4188 2.72738 15.7292 2.07734 15.0682 1.53929C14.3739 0.974175 13.8819 0.595776 13.596 0.434621C13.5497 0.408517 13.4776 0.369893 13.3902 0.334482L13.3866 0.333028C13.3342 0.311676 13.1093 0.220119 12.8152 0.229139C12.646 0.234325 12.3344 0.276469 12.0334 0.507199C11.7014 0.761627 11.5574 1.10929 11.5181 1.39219C11.4604 1.80731 11.6163 2.12461 11.6409 2.17469L11.6432 2.17922C11.7245 2.34907 11.8309 2.48208 11.8675 2.5277L11.8683 2.52879C11.9246 2.59909 11.9868 2.66981 12.0463 2.73501C12.4934 3.22462 13.4627 4.12825 14.1544 4.69419C14.3417 4.84742 14.5299 5.00271 14.7195 5.15917ZM13.9595 0.854996L13.9625 0.858616C13.9523 0.844719 13.9497 0.842699 13.9595 0.854996Z" fill="#4299FF"/>
</svg>
