<svg width="25" height="20" viewBox="0 0 25 20" fill="none" xmlns="http://www.w3.org/2000/svg">
<path fill-rule="evenodd" clip-rule="evenodd" d="M9.59982 7.59862C8.83837 8.22687 8.05389 8.87411 7.21348 9.48406C7.10419 9.58177 6.99424 9.67893 6.88373 9.7752C6.77895 9.8665 6.67267 9.95792 6.56494 10.0492C8.31254 10.1516 10.1587 10.0944 12.064 9.96559C13.2816 9.88328 14.5393 9.76946 15.803 9.65508L15.803 9.65508C18.2548 9.43318 20.7296 9.20919 22.98 9.20919C23.7197 9.20919 24.3193 9.80881 24.3193 10.5485C24.3193 11.2882 23.7197 11.8878 22.98 11.8878C20.8416 11.8878 18.5902 12.0926 16.2255 12.3077L16.2255 12.3077L16.2253 12.3077C14.9323 12.4254 13.6054 12.5461 12.2446 12.6381C10.6244 12.7476 8.97648 12.8132 7.34759 12.7645C7.68965 12.9258 8.02525 13.088 8.35507 13.248L8.5518 13.3435L8.55186 13.3435C9.93204 14.0134 11.207 14.6323 12.5594 15.0831C13.2611 15.317 13.6404 16.0754 13.4065 16.7772C13.1726 17.4789 12.4141 17.8581 11.7124 17.6242C10.1888 17.1163 8.76857 16.4266 7.4265 15.7747L7.42647 15.7747L7.18608 15.658C5.74715 14.9601 4.37802 14.3113 2.89503 13.855C2.05086 13.5952 1.31439 13.3166 0.829889 12.9548C0.633544 12.8082 0.356028 12.5586 0.189097 12.1817C0.113037 12.0542 0.0570394 11.9118 0.0262664 11.7579C-0.0464932 11.3941 0.0355808 11.0353 0.226996 10.7497C0.1972 10.5545 0.210279 10.3497 0.273202 10.1486C0.494062 9.44265 1.24537 9.04943 1.9513 9.27029C2.0048 9.28703 2.05848 9.30347 2.11231 9.31962C2.26561 9.2449 2.42451 9.16906 2.58345 9.09321L2.58347 9.0932L2.59587 9.08728C2.8692 8.95684 3.15005 8.82273 3.43969 8.67792C4.18008 8.30772 4.86057 7.87709 5.5262 7.39927C6.03717 6.93915 6.5393 6.46142 7.04103 5.98407L7.04107 5.98403L7.22104 5.81285C7.90058 5.16683 8.59012 4.51679 9.25114 3.97875C9.94543 3.41363 10.4374 3.03523 10.7233 2.87407C10.7696 2.84797 10.8418 2.80935 10.9291 2.77394L10.9327 2.77248C10.9851 2.75113 11.21 2.65957 11.5042 2.66859C11.6733 2.67378 11.9849 2.71592 12.286 2.94665C12.6179 3.20108 12.7619 3.54874 12.8012 3.83164C12.8589 4.24677 12.703 4.56407 12.6784 4.61414L12.6762 4.61868C12.5949 4.78853 12.4884 4.92153 12.4519 4.96716L12.451 4.96825C12.3947 5.03855 12.3326 5.10926 12.273 5.17446C11.8259 5.66407 10.8567 6.5677 10.165 7.13364C9.97768 7.28686 9.78949 7.44213 9.59987 7.59858L9.59982 7.59862ZM10.3598 3.29445L10.3568 3.29807C10.3671 3.28417 10.3696 3.28215 10.3598 3.29445Z" fill="#4299FF"/>
</svg>
