<svg width="25" height="16" viewBox="0 0 25 16" fill="none" xmlns="http://www.w3.org/2000/svg">
<path fill-rule="evenodd" clip-rule="evenodd" d="M14.7195 5.51659C15.481 6.14484 16.2654 6.79208 17.1059 7.40203C17.2151 7.49974 17.3251 7.59689 17.4356 7.69317C17.5404 7.78446 17.6467 7.87589 17.7544 7.96712C16.0068 8.06958 14.1607 8.01236 12.2554 7.88356C11.0377 7.80125 9.78006 7.68742 8.51631 7.57305L8.51629 7.57305C6.0645 7.35114 3.58972 7.12716 1.33929 7.12716C0.599621 7.12716 0 7.72678 0 8.46645C0 9.20612 0.599621 9.80574 1.33929 9.80574C3.47771 9.80574 5.72911 10.0106 8.09378 10.2257L8.09383 10.2257L8.09387 10.2257C9.38693 10.3433 10.7139 10.4641 12.0747 10.556C13.695 10.6656 15.3429 10.7312 16.9717 10.6825C16.6297 10.8438 16.2941 11.006 15.9643 11.166L15.7675 11.2614L15.7675 11.2615C14.3873 11.9314 13.1123 12.5502 11.7599 13.001C11.0582 13.2349 10.679 13.9934 10.9129 14.6951C11.1468 15.3968 11.9052 15.7761 12.6069 15.5422C14.1306 15.0343 15.5508 14.3445 16.8929 13.6927L17.1332 13.576C18.5722 12.878 19.9413 12.2292 21.4243 11.7729C22.2685 11.5132 23.0049 11.2346 23.4894 10.8728C23.6858 10.7261 23.9633 10.4766 24.1302 10.0996C24.2063 9.97215 24.2623 9.82976 24.2931 9.67589C24.3658 9.31209 24.2838 8.95326 24.0923 8.66763C24.1221 8.47246 24.1091 8.26767 24.0461 8.06655C23.8253 7.36062 23.074 6.9674 22.368 7.18826C22.3145 7.205 22.2609 7.22144 22.207 7.23759C22.0537 7.16287 21.8948 7.08703 21.7359 7.01117L21.7235 7.00525C21.4501 6.87481 21.1693 6.7407 20.8796 6.59588C20.1393 6.22569 19.4588 5.79506 18.7931 5.31724C18.2822 4.85715 17.7801 4.37946 17.2784 3.90214L17.2783 3.902L17.0983 3.73082C16.4188 3.0848 15.7292 2.43476 15.0682 1.89672C14.3739 1.3316 13.8819 0.953198 13.596 0.792043C13.5497 0.765939 13.4776 0.727315 13.3902 0.691904L13.3866 0.69045C13.3342 0.669098 13.1093 0.577541 12.8152 0.58656C12.646 0.591747 12.3344 0.633891 12.0334 0.864621C11.7014 1.11905 11.5574 1.46671 11.5181 1.74961C11.4604 2.16474 11.6163 2.48204 11.6409 2.53211L11.6432 2.53665C11.7245 2.70649 11.8309 2.8395 11.8675 2.88512L11.8683 2.88622C11.9246 2.95652 11.9868 3.02723 12.0463 3.09243C12.4934 3.58204 13.4627 4.48567 14.1544 5.05161C14.3417 5.20484 14.5299 5.36013 14.7195 5.51659ZM13.9595 1.21242L13.9625 1.21604C13.9523 1.20214 13.9497 1.20012 13.9595 1.21242Z" fill="#D9FF42"/>
</svg>
