<svg width="25" height="16" viewBox="0 0 25 16" fill="none" xmlns="http://www.w3.org/2000/svg">
<path fill-rule="evenodd" clip-rule="evenodd" d="M14.7195 5.44628C15.481 6.07453 16.2654 6.72177 17.1059 7.33172C17.2151 7.42943 17.3251 7.52658 17.4356 7.62286C17.5404 7.71415 17.6467 7.80558 17.7544 7.89681C16.0068 7.99926 14.1607 7.94205 12.2554 7.81325C11.0377 7.73094 9.7801 7.61712 8.51637 7.50274L8.51631 7.50274C6.06452 7.28083 3.58973 7.05685 1.33929 7.05685C0.599621 7.05685 0 7.65647 0 8.39614C0 9.13581 0.599621 9.73543 1.33929 9.73543C3.47773 9.73543 5.72915 9.94025 8.09383 10.1554L8.09387 10.1554C9.38693 10.273 10.7139 10.3937 12.0747 10.4857C13.695 10.5953 15.3429 10.6609 16.9717 10.6122C16.6297 10.7735 16.2941 10.9357 15.9643 11.0957L15.7675 11.1911L15.7675 11.1911C14.3873 11.8611 13.1123 12.4799 11.7599 12.9307C11.0582 13.1646 10.679 13.9231 10.9129 14.6248C11.1468 15.3265 11.9052 15.7058 12.6069 15.4719C14.1306 14.964 15.5508 14.2742 16.8929 13.6224L17.1332 13.5057C18.5722 12.8077 19.9413 12.1589 21.4243 11.7026C22.2685 11.4429 23.0049 11.1643 23.4894 10.8024C23.6858 10.6558 23.9633 10.4063 24.1302 10.0293C24.2063 9.90184 24.2623 9.75945 24.2931 9.60558C24.3658 9.24178 24.2838 8.88295 24.0923 8.59732C24.1221 8.40215 24.1091 8.19735 24.0461 7.99624C23.8253 7.29031 23.074 6.89709 22.368 7.11795C22.3145 7.13469 22.2609 7.15113 22.207 7.16728C22.0537 7.09256 21.8948 7.01673 21.7359 6.94089L21.7359 6.94086L21.7235 6.93494C21.4501 6.80449 21.1693 6.67039 20.8796 6.52557C20.1393 6.15538 19.4588 5.72475 18.7931 5.24693C18.2822 4.78683 17.7801 4.30913 17.2784 3.8318L17.2783 3.83169L17.0983 3.6605C16.4188 3.01449 15.7292 2.36445 15.0682 1.8264C14.3739 1.26128 13.8819 0.882885 13.596 0.72173C13.5497 0.695626 13.4776 0.657002 13.3902 0.621592L13.3866 0.620137C13.3342 0.598786 13.1093 0.507229 12.8152 0.516248C12.646 0.521435 12.3344 0.563578 12.0334 0.794309C11.7014 1.04874 11.5574 1.3964 11.5181 1.6793C11.4604 2.09442 11.6163 2.41172 11.6409 2.4618L11.6432 2.46633C11.7245 2.63618 11.8309 2.76919 11.8675 2.81481L11.8683 2.8159C11.9246 2.8862 11.9868 2.95692 12.0463 3.02212C12.4934 3.51172 13.4627 4.41535 14.1544 4.9813C14.3417 5.13453 14.5299 5.28982 14.7195 5.44628ZM13.9595 1.14211L13.9625 1.14573C13.9523 1.13183 13.9497 1.12981 13.9595 1.14211Z" fill="white"/>
</svg>
