<svg width="25" height="16" viewBox="0 0 25 16" fill="none" xmlns="http://www.w3.org/2000/svg">
<path fill-rule="evenodd" clip-rule="evenodd" d="M9.59982 5.15917C8.83837 5.78742 8.05389 6.43466 7.21348 7.04461C7.10419 7.14232 6.99424 7.23947 6.88373 7.33575C6.77895 7.42704 6.67267 7.51847 6.56494 7.6097C8.31254 7.71215 10.1587 7.65494 12.064 7.52614C13.2816 7.44383 14.5393 7.33 15.803 7.21563L15.803 7.21562C18.2548 6.99372 20.7296 6.76974 22.98 6.76974C23.7197 6.76974 24.3193 7.36936 24.3193 8.10903C24.3193 8.8487 23.7197 9.44832 22.98 9.44832C20.8416 9.44832 18.5902 9.65314 16.2256 9.86827L16.2255 9.86827L16.2255 9.86827C14.9324 9.98591 13.6055 10.1066 12.2446 10.1986C10.6244 10.3082 8.97648 10.3738 7.34759 10.3251C7.68965 10.4864 8.02525 10.6486 8.35507 10.8085L8.5518 10.904L8.55184 10.904C9.93202 11.574 11.207 12.1928 12.5594 12.6436C13.2611 12.8775 13.6404 13.636 13.4065 14.3377C13.1726 15.0394 12.4141 15.4186 11.7124 15.1847C10.1888 14.6769 8.76855 13.9871 7.42648 13.3353L7.42647 13.3353L7.18608 13.2186C5.74715 12.5206 4.37802 11.8718 2.89503 11.4155C2.05086 11.1558 1.31439 10.8772 0.829889 10.5153C0.633544 10.3687 0.356028 10.1192 0.189097 9.74221C0.113037 9.61473 0.0570394 9.47234 0.0262664 9.31847C-0.0464932 8.95467 0.0355808 8.59584 0.226996 8.31021C0.1972 8.11504 0.210279 7.91025 0.273202 7.70913C0.494062 7.0032 1.24537 6.60998 1.9513 6.83084C2.0048 6.84758 2.05848 6.86402 2.11231 6.88017C2.26561 6.80545 2.42451 6.72961 2.58345 6.65376L2.58347 6.65375L2.59587 6.64783C2.8692 6.51738 3.15005 6.38328 3.43969 6.23846C4.18008 5.86827 4.86057 5.43764 5.5262 4.95982C6.03718 4.49969 6.53933 4.02194 7.04107 3.54458L7.04107 3.54458L7.22104 3.3734C7.90058 2.72738 8.59012 2.07734 9.25114 1.53929C9.94543 0.974175 10.4374 0.595776 10.7233 0.434621C10.7696 0.408517 10.8418 0.369893 10.9291 0.334482L10.9327 0.333028C10.9851 0.311676 11.21 0.220119 11.5042 0.229139C11.6733 0.234325 11.9849 0.276469 12.286 0.507199C12.6179 0.761627 12.7619 1.10929 12.8012 1.39219C12.8589 1.80731 12.703 2.12461 12.6784 2.17469L12.6762 2.17922C12.5949 2.34907 12.4884 2.48208 12.4519 2.5277L12.451 2.52879C12.3947 2.59909 12.3326 2.66981 12.273 2.73501C11.8259 3.22462 10.8567 4.12825 10.165 4.69419C9.97768 4.84741 9.78949 5.00268 9.59987 5.15913L9.59982 5.15917ZM10.3598 0.854996L10.3568 0.858616C10.3671 0.844719 10.3696 0.842699 10.3598 0.854996Z" fill="#D9FF42"/>
</svg>
