<svg width="42" height="205" viewBox="0 0 42 205" fill="none" xmlns="http://www.w3.org/2000/svg">
<path d="M7.25 18.9C7.25 15.0333 7.95 11.7833 9.35 9.15C10.75 6.51667 12.7 4.53334 15.2 3.2C17.7 1.9 20.6 1.25 23.9 1.25C29.0667 1.25 33.2167 2.61667 36.35 5.35C39.5167 8.11667 41.1 12.2833 41.1 17.85C41.1 20.65 40.85 22.9833 40.35 24.85C39.85 26.75 39.0333 28.4833 37.9 30.05L31 30.05L31 20.8L34.95 20.8C35.15 19.9333 35.25 18.95 35.25 17.85C35.25 15.3833 34.25 13.5167 32.25 12.25C30.2833 10.9833 27.5 10.35 23.9 10.35C20.3667 10.35 17.6833 11.0667 15.85 12.5C14.0167 13.9667 13.1 16.2667 13.1 19.4C13.1 20.9667 13.2667 22.3667 13.6 23.6C13.9333 24.8333 14.55 26.1 15.45 27.4L10.55 30.45C9.25 28.5833 8.38333 26.8333 7.95 25.2C7.48333 23.6 7.25 21.5 7.25 18.9ZM7.25 43.9434C7.25 39.7434 8.33333 36.4767 10.5 34.1434C12.6667 31.8434 15.8333 30.6934 20 30.6934C24.2 30.6934 27.3667 31.8267 29.5 34.0934C31.6667 36.36 32.75 39.6434 32.75 43.9434C32.75 48.21 31.6667 51.46 29.5 53.6934C27.3667 55.96 24.2 57.0934 20 57.0934C15.8333 57.0934 12.6667 55.9434 10.5 53.6434C8.33334 51.3434 7.25 48.11 7.25 43.9434ZM13.2 43.9434C13.2 45.41 13.7167 46.4267 14.75 46.9934C15.8167 47.5934 17.5667 47.8934 20 47.8934C22.4667 47.8934 24.2167 47.5934 25.25 46.9934C26.2833 46.4267 26.8 45.41 26.8 43.9434C26.8 42.4434 26.2833 41.41 25.25 40.8434C24.25 40.2767 22.5 39.9934 20 39.9934C17.5333 39.9934 15.7833 40.2767 14.75 40.8434C13.7167 41.41 13.2 42.4434 13.2 43.9434ZM13.9 58.5742L13.9 59.1242C13.9 60.4909 14.5333 61.1742 15.8 61.1742L24.15 61.1742C24.75 61.1742 25.2167 60.9909 25.55 60.6242C25.8833 60.2909 26.05 59.7909 26.05 59.1242L26.05 58.5742L32 58.5742L32 66.6742L28.65 67.0742C30.0167 68.1409 31.0333 69.4409 31.7 70.9742C32.4 72.5409 32.75 74.2909 32.75 76.2242C32.75 78.8242 31.7333 81.0076 29.7 82.7742C30.8 83.6742 31.5833 84.7242 32.05 85.9242C32.5167 87.1242 32.75 88.4909 32.75 90.0242C32.75 92.9909 32.0333 95.1409 30.6 96.4742C29.1667 97.8076 27.05 98.4742 24.25 98.4742L15.8 98.4742C14.5333 98.4742 13.9 99.1576 13.9 100.524L13.9 101.474L8 101.474L8 89.3742L24.2 89.3742C25.2333 89.3742 25.9833 89.1576 26.45 88.7242C26.9167 88.2909 27.15 87.6409 27.15 86.7742C27.15 85.8409 26.9167 85.1576 26.45 84.7242C26.0167 84.2909 25.2833 84.0742 24.25 84.0742L15.8 84.0742C15.1667 84.0742 14.6833 84.1909 14.35 84.4242C14.05 84.6909 13.9 85.1409 13.9 85.7742L13.9 86.5242L8 86.5242L8 75.5242L24.2 75.5242C25.2333 75.5242 25.9833 75.3076 26.45 74.8742C26.9167 74.4409 27.15 73.7909 27.15 72.9242C27.15 71.9909 26.9167 71.3076 26.45 70.8742C26.0167 70.4409 25.2667 70.2242 24.2 70.2242L15.8 70.2242C14.5333 70.2242 13.9 70.7742 13.9 71.8742L13.9 72.5742L8 72.5742L8 58.5742L13.9 58.5742ZM13.9 102.471L13.9 103.021C13.9 104.387 14.5333 105.071 15.8 105.071L24.15 105.071C24.75 105.071 25.2167 104.887 25.55 104.521C25.8833 104.187 26.05 103.687 26.05 103.021L26.05 102.471L32 102.471L32 110.571L28.65 110.971C30.0167 112.037 31.0333 113.337 31.7 114.871C32.4 116.437 32.75 118.187 32.75 120.121C32.75 122.721 31.7333 124.904 29.7 126.671C30.8 127.571 31.5833 128.621 32.05 129.821C32.5167 131.021 32.75 132.387 32.75 133.921C32.75 136.887 32.0333 139.037 30.6 140.371C29.1667 141.704 27.05 142.371 24.25 142.371L15.8 142.371C14.5333 142.371 13.9 143.054 13.9 144.421L13.9 145.371L8.00001 145.371L8.00001 133.271L24.2 133.271C25.2333 133.271 25.9833 133.054 26.45 132.621C26.9167 132.187 27.15 131.537 27.15 130.671C27.15 129.737 26.9167 129.054 26.45 128.621C26.0167 128.187 25.2833 127.971 24.25 127.971L15.8 127.971C15.1667 127.971 14.6833 128.087 14.35 128.321C14.05 128.587 13.9 129.037 13.9 129.671L13.9 130.421L8.00001 130.421L8.00001 119.421L24.2 119.421C25.2333 119.421 25.9833 119.204 26.45 118.771C26.9167 118.337 27.15 117.687 27.15 116.821C27.15 115.887 26.9167 115.204 26.45 114.771C26.0167 114.337 25.2667 114.121 24.2 114.121L15.8 114.121C14.5333 114.121 13.9 114.671 13.9 115.771L13.9 116.471L8.00001 116.471L8 102.471L13.9 102.471ZM7.25001 159.617C7.25001 155.417 8.33334 152.151 10.5 149.817C12.6667 147.517 15.8333 146.367 20 146.367C24.2 146.367 27.3667 147.501 29.5 149.767C31.6667 152.034 32.75 155.317 32.75 159.617C32.75 163.884 31.6667 167.134 29.5 169.367C27.3667 171.634 24.2 172.767 20 172.767C15.8333 172.767 12.6667 171.617 10.5 169.317C8.33334 167.017 7.25001 163.784 7.25001 159.617ZM13.2 159.617C13.2 161.084 13.7167 162.101 14.75 162.667C15.8167 163.267 17.5667 163.567 20 163.567C22.4667 163.567 24.2167 163.267 25.25 162.667C26.2833 162.101 26.8 161.084 26.8 159.617C26.8 158.117 26.2833 157.084 25.25 156.517C24.25 155.951 22.5 155.667 20 155.667C17.5333 155.667 15.7833 155.951 14.75 156.517C13.7167 157.084 13.2 158.117 13.2 159.617ZM13.9 174.248L13.9 174.748C13.9 176.148 14.5333 176.848 15.8 176.848L24.1 176.848C25.3667 176.848 26 176.198 26 174.898L26 174.248L32 174.248L32 182.648L28.8 182.998C31.4333 185.165 32.75 188.231 32.75 192.198C32.75 195.198 32.0167 197.398 30.55 198.798C29.1167 200.198 27.0167 200.898 24.25 200.898L15.8 200.898C14.5333 200.898 13.9 201.581 13.9 202.948L13.9 203.898L8.00001 203.898L8.00001 191.498L24.2 191.498C25.2333 191.498 25.9833 191.281 26.45 190.848C26.9167 190.415 27.15 189.765 27.15 188.898C27.15 187.965 26.9167 187.281 26.45 186.848C26.0167 186.415 25.2667 186.198 24.2 186.198L15.8 186.198C15.1667 186.198 14.6833 186.315 14.35 186.548C14.05 186.815 13.9 187.265 13.9 187.898L13.9 188.548L8.00001 188.548L8.00001 174.248L13.9 174.248Z" fill="#D9FF42"/>
<path d="M3 0.500002L3.00001 204.148L0.500009 204.148L0.5 0.500002L3 0.500002Z" fill="#D9FF42"/>
</svg>
