<svg width="3311" height="191" viewBox="0 0 3311 191" fill="none" xmlns="http://www.w3.org/2000/svg">
<g clip-path="url(#clip0_2684_45)">
<path d="M1424.54 62.8194C1424.4 63.9994 1424.13 65.1794 1424.13 66.3594C1424.1 76.4594 1424.11 86.5594 1424.11 96.6594C1424.11 125.169 1424.11 153.679 1424.11 182.189C1424.11 185.049 1422.66 186.483 1419.75 186.489C1397.13 186.489 1374.51 186.489 1351.89 186.489C1351.26 186.489 1350.63 186.509 1350 186.479C1347.9 186.359 1347.68 186.149 1347.57 184.069C1347.53 183.229 1347.56 182.389 1347.56 181.549C1347.56 123.899 1347.56 66.2494 1347.56 8.59941C1347.56 3.72941 1347 3.69941 1352.28 3.69941C1379.84 3.70941 1407.41 3.73941 1434.97 3.64941C1437.84 3.64941 1439.88 4.37941 1441.75 6.63941C1448.09 14.3494 1454.6 21.9194 1461.07 29.5194C1467.87 37.5094 1474.73 45.4494 1481.5 53.4694C1487.93 61.0894 1494.25 68.8094 1500.67 76.4394C1505.41 82.0594 1510.27 87.5794 1515.02 93.1894C1523.56 103.289 1532.06 113.429 1540.58 123.549C1541.64 124.809 1542.59 126.219 1544.83 126.649C1544.96 125.389 1545.16 124.299 1545.17 123.209C1545.2 116.369 1545.19 109.529 1545.19 102.699C1545.19 71.1394 1545.19 39.5794 1545.19 8.01941C1545.19 5.15275 1546.64 3.71608 1549.55 3.70941C1572.17 3.70941 1594.79 3.70941 1617.41 3.70941C1620.3 3.70941 1621.75 5.15608 1621.76 8.04941C1621.76 66.1194 1621.76 124.189 1621.76 182.259C1621.76 186.479 1621.75 186.489 1617.64 186.489C1589.66 186.489 1561.67 186.449 1533.69 186.549C1530.84 186.559 1529.09 185.569 1527.37 183.379C1523.02 177.859 1518.39 172.549 1513.87 167.159C1507.53 159.599 1501.2 152.029 1494.83 144.489C1488.46 136.949 1482.04 129.459 1475.67 121.919C1471.4 116.859 1467.21 111.749 1462.95 106.679C1455.99 98.3994 1448.98 90.1694 1442.02 81.8794C1437.9 76.9694 1433.85 71.9994 1429.74 67.0894C1428.42 65.5094 1426.98 64.0294 1425.59 62.4994C1425.25 62.5994 1424.9 62.7094 1424.56 62.8094L1424.54 62.8194Z" fill="#AE42FF"/>
<path d="M654.782 190.51C646.302 190.09 636.732 189.83 627.202 189.06C619.902 188.46 612.652 187.24 605.512 185.52C600.432 184.3 595.252 183.38 590.302 181.74C585.052 180 579.932 177.76 574.912 175.41C565.512 171 557.132 165.05 549.852 157.65C541.172 148.82 534.962 138.44 531.202 126.62C529.552 121.42 528.622 116.09 527.692 110.71C526.212 102.11 526.572 93.5298 526.932 84.9498C527.152 79.8798 528.292 74.7898 529.472 69.8198C532.932 55.3098 539.932 42.7398 550.462 32.0798C559.172 23.2498 569.452 16.8998 580.812 12.1898C587.692 9.33982 594.752 7.02982 602.062 5.49982C606.372 4.59982 610.632 3.47982 614.962 2.73982C618.972 2.04982 623.042 1.57982 627.102 1.28982C634.652 0.749817 642.212 0.269817 649.772 0.0298172C654.702 -0.130183 659.652 0.0898172 664.582 0.279817C671.512 0.549817 678.452 0.839817 685.372 1.32982C689.222 1.59982 693.042 2.25982 696.862 2.83982C699.242 3.19982 701.602 3.74982 703.972 4.21982C718.692 7.12982 732.732 11.8698 745.592 19.7398C755.302 25.6798 763.542 33.3198 769.982 42.6898C775.912 51.3098 780.052 60.7698 782.312 71.0998C784.072 79.1598 785.052 87.2898 785.022 95.4498C785.002 102.45 784.292 109.54 783.012 116.43C781.362 125.31 778.342 133.87 773.762 141.73C768.082 151.45 760.702 159.66 751.582 166.35C744.932 171.22 737.772 175.13 730.222 178.32C724.732 180.64 719.042 182.52 713.212 183.83C707.702 185.07 702.112 185.96 696.602 187.21C689.402 188.84 682.082 189.21 674.762 189.65C668.472 190.03 662.162 190.19 654.762 190.48L654.782 190.51ZM655.832 47.4398C646.412 47.7698 637.332 49.0198 628.572 52.8998C619.032 57.1298 612.482 64.1598 607.862 73.1498C604.872 78.9598 603.252 85.1698 603.202 91.8698C603.152 99.2498 603.392 106.44 606.222 113.44C611.622 126.78 621.032 135.56 634.852 139.6C636.052 139.95 637.222 140.5 638.442 140.69C642.262 141.27 646.092 141.86 649.942 142.19C661.182 143.15 672.152 141.94 682.592 137.45C692.152 133.34 699.062 126.29 703.602 117.08C707.262 109.65 709.022 101.7 708.622 93.2998C708.082 81.7698 704.242 71.6198 696.602 62.9098C689.492 54.8098 680.212 50.7498 669.912 48.8398C665.282 47.9798 660.522 47.8898 655.812 47.4498L655.832 47.4398Z" fill="#AE42FF"/>
<path d="M2155.46 95.2598C2155.46 123.98 2155.46 152.7 2155.46 181.42C2155.46 184.793 2153.8 186.483 2150.49 186.49C2128.4 186.49 2106.31 186.49 2084.22 186.49C2079.06 186.49 2079.16 186.93 2079.16 181.58C2079.16 160.12 2079.16 138.66 2079.16 117.2C2079.16 112.1 2079.12 112.06 2074.1 112.06C2044.33 112.06 2014.56 112.06 1984.79 112.06C1980.01 112.06 1979.92 112.14 1979.92 117.06C1979.92 138.52 1979.92 159.98 1979.92 181.44C1979.92 184.8 1978.22 186.483 1974.82 186.49C1952.52 186.49 1930.22 186.49 1907.91 186.49C1903.72 186.49 1903.7 186.48 1903.7 182.34C1903.7 124.17 1903.7 65.9898 1903.7 7.81983C1903.7 7.49983 1903.7 7.18983 1903.7 6.86983C1903.77 3.97983 1903.94 3.79983 1906.71 3.71983C1907.24 3.69983 1907.76 3.71983 1908.29 3.71983C1930.49 3.71983 1952.68 3.71983 1974.88 3.71983C1978.23 3.71983 1979.9 5.43316 1979.91 8.85983C1979.91 29.7898 1979.94 50.7298 1979.9 71.6598C1979.88 79.4898 1980.7 78.1498 1986.55 78.1498C2015.58 78.1898 2044.62 78.1698 2073.65 78.1698C2079.04 78.1698 2079.16 78.0598 2079.16 72.7098C2079.16 51.2498 2079.16 29.7898 2079.16 8.32983C2079.16 5.26316 2080.74 3.72649 2083.9 3.71983C2106.2 3.71983 2128.5 3.71983 2150.81 3.71983C2153.9 3.71983 2155.45 5.30983 2155.46 8.48983C2155.46 37.4198 2155.46 66.3498 2155.46 95.2798V95.2598Z" fill="#AE42FF"/>
<path d="M2664.7 60.5898C2663.34 60.6898 2662.32 60.8298 2661.3 60.8298C2636.47 60.8398 2611.65 60.8298 2586.82 60.8598C2585.16 60.8598 2583.84 60.5498 2582.66 59.1898C2569.25 43.6398 2538.46 43.4898 2525.64 59.9798C2520 67.2298 2532.15 68.7598 2536.96 69.5198C2546.21 70.9798 2555.59 71.1898 2564.92 71.7298C2591.23 73.2598 2620.99 75.2098 2644.65 87.8898C2661.57 96.9498 2669.63 113.99 2664.64 132.75C2655.97 165.36 2624.59 182.46 2593.29 187.66C2573.82 190.89 2553.46 190.93 2533.8 189.62C2515.06 188.37 2496.23 184.85 2479.39 176.21C2465.08 168.86 2454.9 157.64 2448.21 143.17C2446.46 139.39 2445.25 135.36 2443.82 131.43C2443.42 130.31 2443.85 129.56 2445.07 129.44C2445.9 129.36 2446.75 129.37 2447.59 129.37C2472 129.37 2496.4 129.39 2520.81 129.33C2524.64 129.33 2525.78 131.26 2528.52 133.56C2531.26 135.86 2534.47 137.85 2537.82 139.33C2549.4 144.44 2563.96 143.78 2575.02 137.57C2578.64 135.54 2581.68 132.82 2583.94 129.29C2589.69 120.31 2566.56 119.35 2562.68 118.95C2536.91 116.29 2511.18 116.7 2485.92 110.18C2466.39 105.14 2446.83 95.9398 2443.34 73.8898C2440.45 55.6398 2451.73 35.5898 2465.08 23.8298C2476.73 13.5598 2492.06 7.58983 2507.06 4.31983C2526.87 -0.0101671 2547.68 -0.320167 2567.87 0.489833C2584.96 1.16983 2602.4 3.04983 2618.47 9.22983C2640.26 17.6098 2657.63 34.5398 2664.47 57.0298C2664.78 58.0598 2664.61 59.2398 2664.68 60.6298L2664.7 60.5898Z" fill="#AE42FF"/>
<path d="M3029.87 60.5898C3028.51 60.6898 3027.49 60.8298 3026.47 60.8298C3001.64 60.8398 2976.82 60.8298 2951.99 60.8598C2950.33 60.8598 2949.01 60.5498 2947.83 59.1898C2934.42 43.6398 2903.63 43.4898 2890.81 59.9798C2885.17 67.2298 2897.32 68.7598 2902.13 69.5198C2911.38 70.9798 2920.76 71.1898 2930.09 71.7298C2956.4 73.2598 2986.16 75.2098 3009.82 87.8898C3026.74 96.9498 3034.8 113.99 3029.81 132.75C3021.14 165.36 2989.76 182.46 2958.46 187.66C2938.99 190.89 2918.63 190.93 2898.97 189.62C2880.23 188.37 2861.4 184.85 2844.56 176.21C2830.25 168.86 2820.07 157.64 2813.38 143.17C2811.63 139.39 2810.42 135.36 2808.99 131.43C2808.59 130.31 2809.02 129.56 2810.24 129.44C2811.07 129.36 2811.92 129.37 2812.76 129.37C2837.17 129.37 2861.57 129.39 2885.98 129.33C2889.81 129.33 2890.95 131.26 2893.69 133.56C2896.43 135.86 2899.64 137.85 2902.99 139.33C2914.57 144.44 2929.13 143.78 2940.19 137.57C2943.81 135.54 2946.85 132.82 2949.11 129.29C2954.86 120.31 2931.73 119.35 2927.85 118.95C2902.08 116.29 2876.35 116.7 2851.09 110.18C2831.56 105.14 2812 95.9398 2808.51 73.8898C2805.62 55.6398 2816.9 35.5898 2830.25 23.8298C2841.9 13.5598 2857.23 7.58983 2872.23 4.31983C2892.04 -0.0101671 2912.85 -0.320167 2933.04 0.489833C2950.13 1.16983 2967.57 3.04983 2983.64 9.22983C3005.43 17.6098 3022.8 34.5398 3029.64 57.0298C3029.95 58.0598 3029.78 59.2398 3029.85 60.6298L3029.87 60.5898Z" fill="#AE42FF"/>
<path d="M1029.49 60.59C1028.13 60.69 1027.11 60.83 1026.09 60.83C1001.26 60.84 976.442 60.83 951.612 60.86C949.952 60.86 948.632 60.55 947.452 59.19C934.042 43.64 903.252 43.49 890.432 59.98C884.792 67.23 896.942 68.76 901.752 69.52C911.002 70.98 920.382 71.19 929.712 71.73C956.022 73.26 985.782 75.21 1009.44 87.89C1026.36 96.95 1034.42 113.99 1029.43 132.75C1020.76 165.36 989.382 182.46 958.082 187.66C938.612 190.89 918.252 190.93 898.592 189.62C879.852 188.37 861.022 184.85 844.182 176.21C829.872 168.86 819.692 157.64 813.002 143.17C811.252 139.39 810.042 135.36 808.612 131.43C808.212 130.31 808.642 129.56 809.862 129.44C810.692 129.36 811.542 129.37 812.382 129.37C836.792 129.37 861.192 129.39 885.602 129.33C889.432 129.33 890.572 131.26 893.312 133.56C896.052 135.86 899.262 137.85 902.612 139.33C914.192 144.44 928.752 143.78 939.812 137.57C943.432 135.54 946.472 132.82 948.732 129.29C954.482 120.31 931.352 119.35 927.472 118.95C901.702 116.29 875.972 116.7 850.712 110.18C831.182 105.14 811.622 95.94 808.132 73.89C805.242 55.64 816.522 35.59 829.872 23.83C841.522 13.56 856.852 7.59 871.852 4.32C891.692 -0.0499992 912.492 -0.36 932.682 0.45C949.772 1.13 967.212 3.01 983.282 9.19C1005.07 17.57 1022.44 34.5 1029.28 56.99C1029.59 58.02 1029.42 59.2 1029.49 60.59Z" fill="#AE42FF"/>
<path d="M80.76 48.1697C80.68 49.5797 80.56 50.6097 80.56 51.6397C80.54 59.1097 80.54 66.5797 80.56 74.0497C80.56 77.8097 80.9 78.1497 84.75 78.1597C104.42 78.1797 124.1 78.1597 143.77 78.1597C159.45 78.1597 175.12 78.1597 190.8 78.1597C195.01 78.1597 195.08 78.2297 195.08 82.3397C195.09 90.8597 195.08 99.3797 195.08 107.9C195.08 108.22 195.08 108.53 195.08 108.85C194.98 111.69 194.75 111.94 192.03 112.03C191.08 112.06 190.14 112.04 189.19 112.04C154.79 112.04 120.39 112.04 85.98 112.04C82.3667 112.04 80.56 113.816 80.56 117.37C80.56 124.42 80.54 131.47 80.56 138.52C80.57 141.6 81.14 142.19 84.17 142.39C85.32 142.46 86.48 142.43 87.64 142.43C131.62 142.43 175.59 142.43 219.57 142.43C226.67 142.43 225.93 141.92 225.95 148.96C225.97 159.9 225.95 170.84 225.95 181.78C225.95 182.73 225.93 183.67 225.89 184.62C225.84 185.73 225.26 186.38 224.13 186.43C223.29 186.47 222.45 186.48 221.61 186.48C150.49 186.48 79.37 186.48 8.25 186.48C4.01 186.48 4 186.47 4 182.38C4 124.21 4 66.0297 4 7.84971C4 7.52971 4 7.21971 4 6.89971C4.06 3.88971 4.19 3.76971 7.28 3.69971C7.91 3.68971 8.54 3.69971 9.17 3.69971C76.29 3.69971 143.41 3.69971 210.53 3.69971C215.93 3.69971 215.95 3.22971 215.94 8.97971C215.92 20.2397 215.94 31.4897 215.94 42.7497C215.94 43.5897 215.98 44.4397 215.91 45.2697C215.74 47.2097 215.39 47.5497 213.36 47.6897C212.31 47.7597 211.26 47.7197 210.2 47.7197C168.85 47.7197 127.51 47.7197 86.16 47.7397C84.42 47.7397 82.68 48.0097 80.76 48.1697Z" fill="#AE42FF"/>
<path d="M2309.59 186.49C2274.34 186.49 2239.1 186.49 2203.85 186.49C2200.6 186.49 2198.97 184.883 2198.96 181.67C2198.96 124.02 2198.96 66.36 2198.96 8.70996C2198.96 5.38329 2200.65 3.71663 2204.02 3.70996C2271.35 3.70996 2338.69 3.70996 2406.02 3.70996C2411.31 3.70996 2410.83 3.70996 2410.83 8.52996C2410.83 20.1 2410.83 31.68 2410.83 43.25C2410.83 43.99 2410.8 44.72 2410.83 45.46C2410.89 47.09 2410.04 47.74 2408.51 47.72C2407.56 47.72 2406.62 47.74 2405.67 47.74C2364.22 47.74 2322.76 47.76 2281.31 47.72C2273.55 47.72 2274.72 48.42 2274.67 54.25C2274.62 60.67 2274.65 67.09 2274.67 73.5C2274.68 77.8 2275.04 78.16 2279.4 78.16C2314.33 78.16 2349.26 78.16 2384.19 78.16C2390.11 78.16 2389.39 78.01 2389.41 83.52C2389.43 91.73 2389.42 99.93 2389.41 108.14C2389.41 112.04 2389.4 112.06 2385.29 112.06C2370.03 112.06 2354.78 112.06 2339.52 112.06C2319.74 112.06 2299.96 112.06 2280.18 112.06C2274.78 112.06 2274.66 112.18 2274.66 117.51C2274.66 124.24 2274.64 130.98 2274.66 137.71C2274.67 141.8 2275.29 142.41 2279.48 142.43C2287.27 142.46 2295.05 142.44 2302.84 142.44C2340.29 142.44 2377.75 142.44 2415.2 142.44C2418.68 142.44 2420.42 144.147 2420.42 147.56C2420.42 159.03 2420.42 170.5 2420.42 181.96C2420.42 182.8 2420.4 183.64 2420.39 184.48C2420.38 185.75 2419.77 186.44 2418.47 186.45C2417.42 186.45 2416.37 186.48 2415.31 186.48C2380.06 186.48 2344.82 186.48 2309.57 186.48L2309.59 186.49Z" fill="#AE42FF"/>
<path d="M503.47 68.8699C502.04 68.9499 500.91 69.0599 499.79 69.0599C475.49 69.0699 451.18 69.0399 426.88 69.0999C424.47 69.0999 422.92 68.5099 421.48 66.3199C416.75 59.1599 409.96 54.4799 401.93 51.6499C392.71 48.3899 383.16 47.3299 373.42 47.9199C370.69 48.0899 367.95 48.2199 365.25 48.6399C348.31 51.3199 335.61 59.8199 328.67 75.8799C326.38 81.1799 324.93 86.7699 324.94 92.6299C324.94 94.0999 324.9 95.5799 324.94 97.0499C325.33 111.29 331.08 123.01 341.89 132.17C345.75 135.44 350.37 137.6 355.19 139.19C366.69 142.99 378.48 143.48 390.36 141.71C397.45 140.66 404.22 138.54 410.37 134.58C415.15 131.5 419.12 127.69 422.23 123.01C423.35 121.32 424.56 120.59 426.58 120.6C451.52 120.65 476.45 120.63 501.39 120.64C502.1 120.64 502.82 120.76 503.97 120.87C503.5 122.57 503.12 124.05 502.67 125.52C496.19 146.71 482.87 162.3 463.5 172.74C458.26 175.57 452.74 177.94 447.21 180.16C438.64 183.61 429.66 185.53 420.58 187.2C411.46 188.87 402.26 189.61 393.07 190.04C383.21 190.5 373.31 190.02 363.43 189.84C359.23 189.76 355.03 189.45 350.83 189.15C347.27 188.9 343.63 188.91 340.19 188.12C331.83 186.22 323.35 184.9 315.09 182.39C301.57 178.28 289.05 172.4 278.18 163.37C269.54 156.19 262.61 147.58 257.63 137.4C253.77 129.49 250.92 121.22 249.89 112.56C248.81 103.53 247.53 94.4499 249.14 85.2299C250.02 80.1899 250.19 75.0199 251.46 69.9899C253.6 61.5799 256.76 53.6599 261.29 46.2299C267.37 36.2599 275.46 28.2699 284.97 21.6899C292.08 16.7699 299.89 13.0899 308.03 10.1999C316.33 7.25986 324.84 5.02986 333.54 3.64986C336.64 3.15986 339.76 2.83986 342.86 2.33986C359.77 -0.370139 376.81 0.379861 393.82 0.559861C398.76 0.609861 403.71 0.839861 408.61 1.39986C413.7 1.97986 418.73 3.02986 423.78 3.90986C437.1 6.22986 449.85 10.2699 461.84 16.5599C478.65 25.3899 491.47 38.1099 499.25 55.5999C500.78 59.0399 501.99 62.6299 503.26 66.1699C503.52 66.8899 503.4 67.7399 503.47 68.8299V68.8699Z" fill="#AE42FF"/>
<path d="M3177.29 56.3696C3178.79 55.0096 3180.22 53.7996 3181.55 52.4996C3192.28 41.9796 3202.99 31.4296 3213.71 20.8996C3218.89 15.8196 3224.12 10.7996 3229.27 5.67965C3230.63 4.32965 3232.08 3.67965 3234.02 3.67965C3257.27 3.71965 3280.53 3.69965 3303.78 3.70965C3304.67 3.70965 3305.57 3.89965 3306.94 4.04965C3306.21 5.00965 3305.87 5.61965 3305.38 6.07965C3291.41 19.1396 3277.42 32.1796 3263.45 45.2296C3257.01 51.2496 3250.62 57.3396 3244.16 63.3396C3235.16 71.7096 3226.11 80.0196 3217.08 88.3596C3216.08 89.2896 3215.04 90.1896 3214.14 91.2096C3212.93 92.5596 3212.94 93.3797 3214.2 94.7597C3215.41 96.0797 3216.72 97.2997 3218 98.5497C3227.83 108.16 3237.66 117.76 3247.49 127.37C3256.52 136.19 3265.53 145.02 3274.57 153.82C3284.87 163.86 3295.2 173.88 3305.51 183.91C3306.16 184.54 3306.7 185.29 3307.71 186.47C3306.13 186.47 3305.12 186.47 3304.11 186.47C3281.17 186.47 3258.23 186.43 3235.3 186.53C3232.4 186.54 3230.43 185.58 3228.48 183.49C3219.09 173.44 3209.53 163.55 3200.05 153.59C3193.67 146.89 3187.33 140.16 3180.95 133.46C3179.87 132.33 3178.69 131.31 3177.28 129.97C3176.17 130.98 3175.13 131.81 3174.22 132.76C3162.49 144.96 3150.76 157.16 3139.08 169.4C3134.44 174.26 3129.87 179.18 3125.34 184.15C3123.89 185.74 3122.35 186.51 3120.14 186.5C3096.57 186.44 3073 186.46 3049.43 186.46C3048.73 186.46 3048.02 186.36 3046.65 186.25C3048.65 184.15 3050.21 182.4 3051.89 180.77C3063.21 169.8 3074.6 158.9 3085.88 147.9C3099.34 134.76 3112.71 121.53 3126.15 108.36C3130.5 104.1 3134.92 99.8996 3139.34 95.7096C3141.88 93.3096 3141.94 92.7997 3139.45 90.4697C3125.47 77.4096 3111.5 64.3597 3097.5 51.3097C3085.36 39.9897 3073.2 28.6996 3061.05 17.3896C3056.74 13.3796 3052.45 9.35965 3048.16 5.32965C3047.8 4.98965 3047.5 4.59965 3046.85 3.85965C3048.29 3.77965 3049.3 3.68965 3050.3 3.68965C3073.34 3.68965 3096.39 3.70965 3119.43 3.63965C3121.93 3.63965 3123.79 4.32965 3125.55 6.14965C3130.68 11.4196 3135.94 16.5596 3141.21 21.6896C3152.43 32.6296 3163.67 43.5396 3174.92 54.4496C3175.58 55.0896 3176.36 55.6096 3177.3 56.3496L3177.29 56.3696Z" fill="#AE42FF"/>
<path d="M1047.11 3.84016C1048.13 3.79016 1049.15 3.71016 1050.17 3.71016C1075.52 3.71016 1100.88 3.73016 1126.23 3.66016C1128.73 3.66016 1130.58 4.37016 1132.33 6.19016C1143.13 17.3802 1154.02 28.5002 1164.9 39.6202C1170.42 45.2502 1175.96 50.8602 1181.54 56.4302C1183.85 58.7402 1183.98 58.7702 1186.32 56.4602C1191.39 51.4602 1196.39 46.3802 1201.38 41.2902C1212.99 29.4402 1224.58 17.5602 1236.16 5.68016C1237.4 4.41016 1238.74 3.70016 1240.59 3.70016C1266.89 3.73016 1293.19 3.72016 1319.49 3.73016C1320 3.73016 1320.5 3.83016 1321.4 3.93016C1320.84 4.72016 1320.53 5.35016 1320.06 5.80016C1312.19 13.3602 1304.28 20.9002 1296.4 28.4602C1287.23 37.2502 1278.08 46.0702 1268.91 54.8602C1259.07 64.3002 1249.22 73.7402 1239.36 83.1702C1234.27 88.0402 1229.2 92.9302 1224.04 97.7102C1222.5 99.1402 1222.04 100.74 1222.05 102.76C1222.1 116.33 1222.07 129.9 1222.07 143.47C1222.07 156.31 1222.07 169.14 1222.07 181.98C1222.07 182.82 1222.05 183.66 1222.05 184.5C1222.05 185.78 1221.44 186.46 1220.14 186.47C1219.3 186.47 1218.46 186.5 1217.62 186.5C1195.32 186.5 1173.01 186.5 1150.71 186.5C1145.72 186.5 1145.56 186.34 1145.56 181.37C1145.56 155.38 1145.52 129.4 1145.61 103.41C1145.62 100.57 1144.92 98.5102 1142.79 96.5302C1134.63 88.9502 1126.62 81.2002 1118.58 73.4802C1104.56 60.0302 1090.57 46.5302 1076.54 33.0902C1069.33 26.1802 1062.04 19.3602 1054.82 12.4602C1052.11 9.87016 1049.51 7.15016 1046.86 4.49016C1046.93 4.28016 1047.01 4.07016 1047.08 3.85016L1047.11 3.84016Z" fill="#AE42FF"/>
<path d="M1762.7 3.7002C1798.05 3.7002 1833.4 3.7002 1868.75 3.7002C1872.01 3.7002 1873.63 5.2902 1873.63 8.4702C1873.63 20.0402 1873.63 31.6102 1873.63 43.1902C1873.63 44.0302 1873.61 44.8702 1873.6 45.7102C1873.58 47.0002 1872.9 47.6302 1871.64 47.6702C1870.59 47.7002 1869.54 47.7202 1868.49 47.7202C1847.76 47.7202 1827.04 47.7202 1806.31 47.7202C1802.45 47.7202 1800.51 49.6369 1800.5 53.4702C1800.5 96.1802 1800.5 138.9 1800.5 181.61C1800.5 186.79 1800.6 186.48 1795.72 186.48C1773.52 186.48 1751.32 186.48 1729.13 186.48C1725.91 186.48 1724.29 184.83 1724.28 181.53C1724.28 138.92 1724.28 96.3102 1724.28 53.7102C1724.28 47.3702 1724.3 47.7202 1718.16 47.7202C1698.17 47.7202 1678.18 47.7202 1658.19 47.7202C1657.35 47.7202 1656.51 47.7202 1655.67 47.7202C1651.86 47.6902 1651.79 47.6402 1651.78 43.8202C1651.77 31.7202 1651.78 19.6202 1651.78 7.5202C1651.78 6.8902 1651.8 6.2602 1651.82 5.6302C1651.85 4.3202 1652.58 3.7502 1653.83 3.7302C1654.88 3.7202 1655.93 3.7002 1656.99 3.7002C1692.23 3.7002 1727.48 3.7002 1762.72 3.7002H1762.7Z" fill="#AE42FF"/>
<path d="M2775.22 95.1002C2775.22 124.13 2775.22 153.16 2775.22 182.18C2775.22 185.047 2773.77 186.484 2770.86 186.49C2748.25 186.49 2725.63 186.49 2703.02 186.49C2702.39 186.49 2701.76 186.51 2701.13 186.48C2699.01 186.36 2698.79 186.16 2698.68 184.09C2698.64 183.36 2698.67 182.62 2698.67 181.88C2698.67 124.03 2698.67 66.1902 2698.67 8.3402C2698.67 5.24686 2700.22 3.7002 2703.32 3.7002C2725.83 3.7002 2748.33 3.7002 2770.84 3.7002C2773.75 3.7002 2775.2 5.13686 2775.21 8.0102C2775.21 37.0402 2775.21 66.0702 2775.21 95.0902L2775.22 95.1002Z" fill="#AE42FF"/>
</g>
<defs>
<clipPath id="clip0_2684_45">
<rect width="3311" height="191" fill="white"/>
</clipPath>
</defs>
</svg>
