<svg width="165" height="146" viewBox="0 0 165 146" fill="none" xmlns="http://www.w3.org/2000/svg">
<path d="M88.8229 41.4508C75.1115 41.6858 61.4726 41.2423 47.7946 40.7891C47.7946 41.7328 47.8581 42.9978 47.5798 43.6203C46.9637 44.9982 47.9553 46.8209 47.6044 48.3517C47.1753 50.2238 47.2106 51.6895 46.4251 53.4565C45.6562 55.1863 44.2932 56.5814 43.5339 58.2966C41.6183 62.624 39.3396 67.1694 36.9717 71.2666C33.1173 77.9357 30.1911 85.1422 26.4911 91.9127C24.5587 95.4487 22.9126 99.1357 21.0891 102.727C19.1597 106.528 16.9242 110.224 15.4209 114.223C13.9439 118.151 12.4352 122.106 10.3993 125.793C10.0759 126.379 7.17334 130.467 9.02982 130.615C18.8346 131.394 28.7036 132.439 38.5504 132.657C51.9075 132.952 65.4323 132.82 78.7227 134.301C94.6133 136.072 110.984 135.738 126.96 135.738C135.1 135.738 143.243 135.674 151.383 135.738C152.888 135.75 154.82 136.343 156.29 136.003C157.06 135.825 156.084 134.13 155.948 133.791C150.92 121.296 147.551 108.291 143.147 95.5806C140.955 89.2542 138.491 83.0268 136.813 76.5416C135.534 71.5977 134.517 66.4853 132.971 61.6242C131.409 56.716 129.927 51.6294 128.938 46.5745C128.644 45.0725 128.09 43.7491 127.645 42.3016C127.412 41.5461 126.63 41.81 125.933 41.81C121.998 41.81 118.132 41.4697 114.197 41.4697C105.709 41.4697 97.3245 41.3051 88.8229 41.4508Z" fill="white"/>
<path fill-rule="evenodd" clip-rule="evenodd" d="M46.3805 39.3262L47.843 39.3746C61.526 39.828 75.13 40.2701 88.8001 40.0358C94.3672 39.9404 99.9007 39.9777 105.426 40.015C108.351 40.0348 111.274 40.0545 114.198 40.0545C116.197 40.0545 118.173 40.1407 120.114 40.2254L120.128 40.226C122.084 40.3113 124.003 40.3948 125.934 40.3948C126.021 40.3948 126.107 40.3883 126.25 40.3774C126.283 40.3749 126.319 40.3722 126.359 40.3692C126.533 40.3564 126.808 40.3372 127.093 40.3632C127.386 40.3899 127.797 40.4721 128.188 40.7452C128.605 41.0353 128.864 41.4452 128.999 41.8861C129.116 42.266 129.254 42.6714 129.399 43.0957C129.737 44.0899 130.111 45.1874 130.329 46.3031C131.302 51.2783 132.765 56.3044 134.321 61.1955C135.358 64.4561 136.172 67.8738 136.968 71.2185C137.37 72.9031 137.766 74.5693 138.185 76.1874C139.41 80.9245 141.053 85.4994 142.723 90.1484C143.313 91.792 143.906 93.4449 144.486 95.1175C146.204 100.074 147.748 105.017 149.284 109.934C151.739 117.793 154.173 125.586 157.263 133.263C157.26 133.257 157.261 133.259 157.27 133.277C157.277 133.292 157.289 133.319 157.31 133.361C157.344 133.433 157.396 133.539 157.449 133.652C157.555 133.877 157.693 134.184 157.802 134.505C157.898 134.789 158.031 135.254 157.994 135.74C157.973 136.001 157.897 136.364 157.647 136.705C157.379 137.074 157.001 137.292 156.611 137.383C155.608 137.614 154.535 137.515 153.675 137.408C153.411 137.374 153.167 137.341 152.938 137.309C152.334 137.226 151.839 137.158 151.373 137.154C145.954 137.112 140.539 137.126 135.116 137.14C132.4 137.147 129.683 137.154 126.961 137.154C124.787 137.154 122.602 137.161 120.409 137.167C106.542 137.207 92.3744 137.247 78.5675 135.709C68.1384 134.547 57.5768 134.384 46.9881 134.221C44.1669 134.178 41.3437 134.135 38.5207 134.072C30.9804 133.906 23.4141 133.256 15.9258 132.613C13.5816 132.412 11.2449 132.211 8.91913 132.026C8.40831 131.986 7.82828 131.781 7.42162 131.252C7.04403 130.761 6.98723 130.208 7.00209 129.827C7.0304 129.1 7.34732 128.33 7.62217 127.757C7.92132 127.133 8.28693 126.513 8.58445 126.03C8.72095 125.809 8.84745 125.61 8.94846 125.451L8.97773 125.405C9.03147 125.32 9.07466 125.252 9.10894 125.196C9.12586 125.169 9.13886 125.148 9.14864 125.132C9.15796 125.116 9.16168 125.109 9.16169 125.109C11.1407 121.525 12.6166 117.663 14.0973 113.725C15.2027 110.785 16.7142 107.96 18.169 105.241C18.7402 104.173 19.3027 103.122 19.8284 102.087C20.5005 100.763 21.1641 99.3921 21.8346 98.007C22.932 95.7399 24.0479 93.4345 25.2504 91.2342C26.9086 88.2 28.4105 85.0755 29.9306 81.9131C30.0866 81.5885 30.2429 81.2634 30.3995 80.938C32.075 77.4572 33.7907 73.9446 35.7475 70.5587C38.0874 66.51 40.3436 62.0103 42.2409 57.724C42.6732 56.7476 43.2656 55.8794 43.778 55.1286L43.808 55.0846C44.352 54.2873 44.8093 53.6103 45.133 52.8819C45.4596 52.1472 45.6222 51.4656 45.7553 50.7011C45.7927 50.4862 45.8296 50.25 45.869 49.9984C45.9619 49.4042 46.0683 48.7242 46.2261 48.0359C46.323 47.613 46.246 47.117 46.1093 46.2368L46.0939 46.1374C45.9751 45.3711 45.7878 44.1637 46.289 43.0429C46.2883 43.0444 46.2883 43.045 46.289 43.0429C46.2925 43.0322 46.3124 42.9712 46.3324 42.8381C46.3547 42.6892 46.37 42.5008 46.3784 42.2733C46.3903 41.9508 46.3872 41.6312 46.3838 41.2945C46.3822 41.1309 46.3805 40.9634 46.3805 40.7895V39.3262ZM49.2117 42.2527C49.2106 42.2948 49.2093 42.3366 49.2077 42.3778C49.1889 42.8873 49.1365 43.6107 48.8736 44.1986C48.7605 44.4515 48.7578 44.8395 48.8931 45.7122C48.9037 45.7806 48.9155 45.8535 48.9279 45.9302C49.043 46.6395 49.212 47.6815 48.9858 48.6684C48.8502 49.2599 48.7709 49.7695 48.6861 50.3138C48.6431 50.5907 48.5986 50.8765 48.5446 51.1867C48.3917 52.0649 48.1791 52.9996 47.7202 54.032C47.2833 55.0148 46.6889 55.8858 46.1758 56.6377L46.1468 56.6803C45.6023 57.4783 45.1484 58.1504 44.8299 58.8701C42.8962 63.2385 40.5948 67.8296 38.1988 71.9754C36.3014 75.2585 34.6268 78.6837 32.9506 82.166C32.7936 82.4921 32.6366 82.8188 32.4794 83.1459C30.9645 86.2976 29.4305 89.4892 27.7348 92.592C26.5548 94.7512 25.5053 96.9214 24.4387 99.127C23.7628 100.525 23.0801 101.936 22.3529 103.369C21.7664 104.524 21.1669 105.644 20.5755 106.749C19.1561 109.401 17.7832 111.966 16.7475 114.721C15.2743 118.639 13.7328 122.688 11.6401 126.478C11.5796 126.588 11.4415 126.806 11.2896 127.046C11.1912 127.202 11.087 127.366 10.9942 127.517C10.7146 127.97 10.4099 128.491 10.1751 128.981C10.1237 129.088 10.0793 129.186 10.0412 129.276C12.1071 129.443 14.1705 129.62 16.2318 129.797C23.7002 130.438 31.1416 131.077 38.5832 131.242C41.3626 131.303 44.1567 131.346 46.9599 131.389C57.5659 131.552 68.3037 131.716 78.881 132.895C92.5144 134.414 106.503 134.375 120.381 134.336C122.578 134.329 124.772 134.323 126.961 134.323C129.667 134.323 132.376 134.316 135.088 134.309C140.52 134.295 145.962 134.28 151.396 134.323C152.062 134.328 152.823 134.434 153.479 134.525C153.673 134.551 153.857 134.577 154.027 134.598C154.309 134.634 154.566 134.66 154.801 134.676C154.787 134.648 154.774 134.62 154.76 134.592L154.758 134.587C154.725 134.52 154.674 134.413 154.636 134.32C151.518 126.572 149.01 118.55 146.52 110.587C144.989 105.691 143.465 100.818 141.811 96.0445C141.254 94.4389 140.676 92.8273 140.094 91.2076C138.412 86.523 136.705 81.7701 135.444 76.8965C134.995 75.1622 134.585 73.4386 134.178 71.7279C133.399 68.4504 132.63 65.2203 131.623 62.0537C130.056 57.1285 128.555 51.9813 127.55 46.8467C127.369 45.9189 127.099 45.1293 126.793 44.2362C126.681 43.9093 126.565 43.5686 126.446 43.2022C126.305 43.213 126.116 43.2261 125.934 43.2261C123.936 43.2261 121.961 43.1399 120.02 43.0552L120.005 43.0546C118.05 42.9693 116.13 42.8857 114.198 42.8857C111.233 42.8857 108.29 42.8658 105.357 42.846C99.8555 42.8088 94.3851 42.7718 88.8487 42.8666C75.5864 43.0939 62.3975 42.6882 49.2117 42.2527ZM155.171 135.6C155.17 135.6 155.17 135.599 155.17 135.598ZM9.8312 129.937C9.83119 129.937 9.8312 129.937 9.8312 129.937Z" fill="white"/>
<path fill-rule="evenodd" clip-rule="evenodd" d="M81.7593 12.5659C80.7321 13.0612 79.7426 13.8262 78.428 14.9805C77.6757 15.641 76.856 16.3115 76.0612 16.9616C75.5195 17.4047 74.9894 17.8383 74.5003 18.2527C73.2348 19.3248 72.0703 20.4056 71.0755 21.636C69.7856 23.2315 68.7901 25.0968 67.7426 27.0598C67.6646 27.206 67.5863 27.3527 67.5076 27.4998C65.7007 30.8779 65.1719 35.352 64.9662 39.4644C64.9272 40.2452 64.2625 40.8466 63.4817 40.8076C62.7008 40.7685 62.0995 40.1039 62.1385 39.323C62.3453 35.1868 62.8807 30.1473 65.011 26.1645C65.0961 26.0055 65.1816 25.8449 65.2679 25.683C66.288 23.7691 67.406 21.6714 68.8739 19.856C70.0324 18.423 71.352 17.2092 72.6701 16.0925C73.2516 15.5998 73.8064 15.1469 74.3502 14.7029C75.0939 14.0957 75.8171 13.5052 76.5599 12.853C77.901 11.6755 79.1331 10.6889 80.5298 10.0156C81.9631 9.32462 83.4923 8.99805 85.4024 8.99805C87.5702 8.99805 89.7215 10.1513 91.4039 11.5468C93.1054 12.9582 94.5628 14.8106 95.277 16.5686C95.7431 17.7159 96.3714 18.8023 97.0585 19.9903C97.1819 20.2038 97.3072 20.4205 97.4339 20.6414C98.2387 22.0457 99.0785 23.5952 99.5579 25.321C99.6575 25.6796 99.7565 26.0755 99.8544 26.4675C99.8654 26.5115 99.8764 26.5555 99.8873 26.5994C99.9982 27.0426 100.111 27.4866 100.234 27.9206C100.488 28.8151 100.756 29.5444 101.057 30.0273C101.557 30.8261 101.861 31.7412 102.091 32.5372C102.184 32.8613 102.264 33.1551 102.337 33.4296C102.463 33.8978 102.574 34.3097 102.716 34.7199C102.987 35.5029 103.213 36.3114 103.423 37.0733L103.453 37.1807C103.657 37.9172 103.847 38.608 104.066 39.2645C104.313 40.0062 103.913 40.8079 103.171 41.0551C102.429 41.3024 101.627 40.9015 101.38 40.1598C101.137 39.4307 100.928 38.6737 100.73 37.9563C100.718 37.9132 100.706 37.8703 100.694 37.8275C100.482 37.0574 100.278 36.3319 100.041 35.646C99.8688 35.1492 99.7102 34.5628 99.5655 34.028C99.4975 33.7766 99.4325 33.5367 99.3708 33.3228C99.1542 32.5731 98.9367 31.976 98.6566 31.5278C98.1306 30.6863 97.7762 29.6303 97.5103 28.694C97.3736 28.2125 97.2516 27.7297 97.1407 27.2864C97.1299 27.2431 97.1192 27.2001 97.1085 27.1577C97.0086 26.7579 96.919 26.3994 96.83 26.0787C96.4536 24.7238 95.775 23.4407 94.9775 22.0493C94.8633 21.85 94.746 21.6476 94.627 21.4422C93.9426 20.2607 93.2007 18.98 92.6539 17.6342C92.1536 16.4025 91.025 14.911 89.5963 13.726C88.1485 12.5251 86.6256 11.8293 85.4024 11.8293C83.8472 11.8293 82.75 12.0883 81.7593 12.5659Z" fill="white"/>
<path fill-rule="evenodd" clip-rule="evenodd" d="M80.1106 9.39459C81.9217 8.48906 84.0286 8.29512 85.8207 8.3615C86.8586 8.39993 87.7727 8.86199 88.4171 9.20813C88.5701 9.2903 88.7098 9.36674 88.8391 9.43747C89.3491 9.71644 89.6964 9.90641 90.0496 10.0073C90.5013 10.1364 90.9711 10.3952 91.3643 10.6412C91.7838 10.9038 92.2257 11.2224 92.643 11.5498C93.4485 12.1817 94.2947 12.9507 94.7412 13.5247C94.8978 13.7261 95.0201 13.9323 95.1089 14.0881C95.1554 14.1697 95.1893 14.2308 95.2187 14.284C95.2588 14.3562 95.2907 14.4138 95.3351 14.4883C95.3996 14.5962 95.4394 14.6472 95.4555 14.6666C96.1601 15.0516 96.4903 15.5802 96.6837 15.9155C96.7914 16.1023 96.8348 16.1718 96.8475 16.1927C97.8559 16.8934 98.3668 17.9726 98.7027 18.7137C98.7512 18.8208 98.7968 18.9221 98.8398 19.0178C99.1549 19.7183 99.3383 20.1261 99.6068 20.4103C100.617 21.4795 101.368 22.9303 101.935 24.3141C102.511 25.7185 102.944 27.1732 103.267 28.3252C104.435 32.4965 105.089 36.6046 105.089 40.9854C105.089 41.7672 104.455 42.401 103.673 42.401C102.891 42.401 102.257 41.7672 102.257 40.9854C102.257 36.8996 101.65 33.0497 100.541 29.0886C100.225 27.9625 99.8274 26.636 99.3158 25.3882C98.7957 24.1198 98.203 23.0474 97.5484 22.3543C96.9203 21.6893 96.5203 20.7805 96.2393 20.1422C96.1984 20.0493 96.16 19.9621 96.1238 19.8823C95.7729 19.1079 95.5259 18.7199 95.2279 18.515C94.6759 18.1355 94.388 17.6136 94.2648 17.3904C94.2517 17.3667 94.2405 17.3463 94.231 17.3299C94.1373 17.1674 94.1202 17.1602 94.1015 17.1524C94.099 17.1513 94.0965 17.1503 94.0937 17.1488C93.4547 16.8105 93.0991 16.266 92.9043 15.9399C92.8416 15.8348 92.766 15.6992 92.7091 15.5971C92.6848 15.5535 92.6639 15.516 92.6489 15.4896C92.5779 15.3649 92.5356 15.3006 92.5063 15.263C92.2759 14.9667 91.6484 14.3681 90.8955 13.7774C90.5336 13.4935 90.1751 13.2371 89.8622 13.0412C89.5228 12.8288 89.3278 12.7456 89.2718 12.7296C88.5808 12.5322 87.8835 12.1467 87.3615 11.8581C87.2597 11.8018 87.1645 11.7491 87.0773 11.7023C86.4316 11.3555 86.0338 11.2026 85.716 11.1908C84.1489 11.1328 82.5849 11.3229 81.3768 11.9269C78.8845 13.1731 76.7372 14.6628 74.5173 16.5656C74.4316 16.639 74.3454 16.7129 74.2586 16.7871C73.3045 17.6035 72.2938 18.4683 71.3915 19.4067C70.4019 20.4359 69.6402 21.4571 69.2558 22.4566C68.7304 23.8227 68.0257 25.1092 67.3746 26.2977C67.2502 26.5249 67.1277 26.7485 67.0088 26.9684C66.2447 28.3816 65.5944 29.6972 65.2386 31.1203C65.0764 31.7693 64.851 32.4367 64.6532 33.0225C64.5641 33.2865 64.4806 33.534 64.4109 33.7556C64.166 34.5355 64.007 35.2248 64.007 35.9608V40.9854C64.007 41.7672 63.3732 42.401 62.5914 42.401C61.8096 42.401 61.1758 41.7672 61.1758 40.9854V35.9608C61.1758 34.8052 61.4298 33.7984 61.7098 32.9071C61.8183 32.5618 61.9226 32.2545 62.0216 31.9628C62.1971 31.4454 62.356 30.9772 62.4919 30.4336C62.9399 28.6414 63.7405 27.0603 64.5183 25.6218C64.652 25.3746 64.7843 25.1325 64.9146 24.8944C65.5646 23.7058 66.1621 22.6132 66.6132 21.4403C67.1957 19.9259 68.2557 18.583 69.3507 17.4443C70.354 16.4009 71.4684 15.4478 72.4076 14.6446C72.4984 14.567 72.5875 14.4907 72.6748 14.4159C75.0362 12.3919 77.3745 10.7627 80.1106 9.39459Z" fill="white"/>
<path fill-rule="evenodd" clip-rule="evenodd" d="M71.0078 79.1582C68.7987 79.1582 67.0078 80.9491 67.0078 83.1582C67.0078 85.3673 68.7987 87.1582 71.0078 87.1582H80.4378C80.1936 88.2111 79.8873 89.3193 79.5514 90.5345C79.4753 90.8101 79.3976 91.0911 79.3188 91.3782C78.6156 93.9402 77.8242 96.992 77.8242 100.151C77.8242 102.36 79.6151 104.151 81.8242 104.151C84.0334 104.151 85.8242 102.36 85.8242 100.151C85.8242 98.1948 86.3205 96.0935 87.0335 93.4957C87.1082 93.2235 87.1859 92.9441 87.2653 92.6585L87.2657 92.6571C87.7299 90.9874 88.254 89.1021 88.6025 87.1582H98.2979C100.507 87.1582 102.298 85.3673 102.298 83.1582C102.298 80.9491 100.507 79.1582 98.2979 79.1582H71.0078Z" fill="#AE42FF"/>
</svg>
