<svg width="165" height="146" viewBox="0 0 165 146" fill="none" xmlns="http://www.w3.org/2000/svg">
<path d="M24.5923 45.522C23.068 43.2391 21.736 40.8571 19.9526 38.7563C18.6928 37.2723 19.755 35.5877 21.397 34.5421C24.114 32.8121 26.7455 29.702 29.11 28.6682C31.9895 27.4092 34.2121 25.2234 36.9853 23.7751C39.4419 22.4922 42.0775 21.7439 44.4944 20.3923C46.3774 19.3391 51.9996 15.8331 54.2622 16.8282C56.1256 17.6476 57.1245 19.8597 58.7799 21.0567C61.0335 22.6863 63.022 25.541 64.7016 27.7016C65.9606 29.3211 67.7146 30.492 68.9751 32.051C69.5987 32.8223 57.8498 37.5992 56.46 38.0314C53.9309 38.8179 52.4578 41.5974 49.8667 42.3808C46.9436 43.2646 44.1165 46.43 42.1745 48.6632C40.9156 50.111 39.1406 50.7591 37.8095 52.0763C36.7055 53.1687 36.0167 54.6356 34.9096 55.731C33.1965 57.4262 32.1936 56.593 31.1856 54.7645C29.4232 51.5672 26.6513 48.6056 24.5923 45.522Z" fill="white"/>
<path fill-rule="evenodd" clip-rule="evenodd" d="M51.7033 15.3568C52.6612 15.1321 53.8397 15.0039 54.8657 15.4551C56.1403 16.0156 57.0481 17.0198 57.7379 17.8251C57.8548 17.9616 57.9659 18.0927 58.0724 18.2184C58.6624 18.9147 59.1141 19.4476 59.6584 19.8412C61.7623 21.3625 63.6412 23.8349 65.1286 25.792C65.3936 26.1408 65.6462 26.4732 65.8855 26.781C66.426 27.4763 67.0873 28.0939 67.8505 28.7928C67.8853 28.8247 67.9203 28.8568 67.9556 28.889C68.6625 29.5359 69.4606 30.2661 70.1411 31.1079C70.4342 31.4704 70.5373 31.9131 70.4859 32.322C70.4415 32.6748 70.2928 32.9351 70.1965 33.0781C70.0076 33.3587 69.7584 33.5679 69.5931 33.6963C69.2284 33.9796 68.7267 34.2783 68.1943 34.5678C67.1041 35.1606 65.6059 35.8632 64.0801 36.5396C61.0498 37.8831 57.6927 39.2188 56.905 39.4637C56.0021 39.7446 55.2402 40.3939 54.1795 41.3312C54.1585 41.3499 54.1372 41.3686 54.1159 41.3875C53.1576 42.2349 51.924 43.3257 50.3004 43.8166C49.1518 44.1639 47.9104 45.004 46.6546 46.1319C45.4159 47.2445 44.2774 48.5304 43.306 49.6475C42.5288 50.5413 41.6134 51.1623 40.8462 51.6698C40.7876 51.7085 40.73 51.7466 40.6733 51.784C39.9428 52.2663 39.3628 52.6491 38.8641 53.1425C38.4243 53.5778 38.051 54.1036 37.5888 54.7633L37.5594 54.8052C37.13 55.4182 36.6149 56.1534 35.9643 56.7972C34.9741 57.777 33.6848 58.5176 32.2491 57.9709C31.6304 57.7354 31.1612 57.3115 30.8087 56.8969C30.4527 56.4782 30.145 55.9846 29.8716 55.4886C29.0495 53.9972 27.9768 52.5345 26.8098 51.0138C26.5929 50.7311 26.3719 50.4455 26.1491 50.1574C25.1962 48.9257 24.208 47.6482 23.3445 46.355C22.8623 45.6329 22.4159 44.9301 21.9811 44.2459C20.962 42.6417 20.0074 41.1391 18.8087 39.7271L19.9266 38.778L18.8087 39.7271C17.7872 38.5238 17.6856 37.122 18.2057 35.8981C18.679 34.7844 19.6208 33.8946 20.591 33.2768L21.3966 34.5421L20.591 33.2768C21.6867 32.5791 22.7763 31.6287 23.9392 30.6143C24.0921 30.481 24.2462 30.3466 24.4017 30.2115C25.661 29.1178 27.0803 27.9183 28.5087 27.2938C29.7977 26.7302 30.9655 25.948 32.2261 25.0643C32.357 24.9725 32.4893 24.8794 32.623 24.7853C33.7416 23.9975 34.9558 23.1425 36.2905 22.4455C37.5046 21.8115 38.7547 21.3032 39.9278 20.8263C40.0152 20.7908 40.1022 20.7554 40.1886 20.7202C41.4606 20.2022 42.644 19.7082 43.7618 19.0831C43.9384 18.9843 44.1595 18.8569 44.4164 18.7089C45.4349 18.122 47.0155 17.2113 48.6094 16.4791C49.6121 16.0184 50.689 15.5948 51.7033 15.3568ZM45.9815 21.2702C45.6982 21.4332 45.4441 21.5795 45.2262 21.7014C43.9271 22.4279 42.5842 22.9839 41.3201 23.4987C41.242 23.5305 41.1643 23.5621 41.0868 23.5936C39.8862 24.082 38.7616 24.5395 37.6793 25.1047C36.5317 25.704 35.4841 26.4409 34.3438 27.2429C34.2132 27.3347 34.0814 27.4274 33.9482 27.5209C32.6843 28.4069 31.301 29.3471 29.7105 30.0425C28.7744 30.4518 27.6956 31.3242 26.3688 32.4766C26.2207 32.6052 26.0698 32.737 25.9164 32.871C24.7787 33.865 23.504 34.9785 22.2023 35.8074C21.5304 36.2352 21.1201 36.7105 20.9667 37.0714C20.8977 37.2339 20.8919 37.3439 20.9019 37.4172C20.9111 37.4851 20.9447 37.6076 21.0957 37.7856L19.9522 38.7563L21.0957 37.7856C22.4362 39.3646 23.5651 41.1408 24.6297 42.8159C25.0396 43.4609 25.4401 44.091 25.8394 44.6891C26.639 45.8866 27.5465 47.0601 28.4942 48.2856C28.724 48.5828 28.9562 48.8831 29.1898 49.1874C30.3641 50.7177 31.5586 52.3345 32.4989 54.0403C32.7294 54.4586 32.9251 54.7548 33.0942 54.9536C33.1695 55.0421 33.2267 55.0961 33.2649 55.1279C33.366 55.0787 33.5609 54.9549 33.8542 54.6647L34.9092 55.731L33.8542 54.6647C34.2957 54.2279 34.6699 53.701 35.1319 53.0417L35.1629 52.9975C35.5916 52.3854 36.1056 51.6517 36.754 51.0101C37.475 50.2966 38.3012 49.7533 38.9877 49.3017C39.057 49.2561 39.1249 49.2114 39.1911 49.1676C39.9589 48.6598 40.5605 48.2329 41.0422 47.6789C42.0128 46.5629 43.2589 45.1494 44.65 43.9C46.024 42.6659 47.6577 41.4815 49.4322 40.945C50.3635 40.6634 51.1435 40.0107 52.1929 39.0833C52.229 39.0514 52.2655 39.0191 52.3024 38.9864C53.243 38.1538 54.4495 37.0857 56.0142 36.5991C56.6163 36.4118 59.8285 35.1429 62.8642 33.7971C64.3714 33.1289 65.7803 32.4656 66.7612 31.9323C66.7737 31.9254 66.7862 31.9186 66.7986 31.9119C66.5089 31.6321 66.1982 31.3475 65.8667 31.044L65.8243 31.0052C65.0806 30.324 64.2354 29.5464 63.517 28.6223C63.2349 28.2594 62.952 27.8887 62.6674 27.5159C61.1594 25.54 59.6071 23.5063 57.9005 22.2722C57.0321 21.6443 56.31 20.786 55.7343 20.1016C55.6386 19.9878 55.547 19.8789 55.4594 19.7766C54.77 18.9718 54.2466 18.4601 53.658 18.2012C53.5527 18.155 53.1799 18.0918 52.3885 18.2775C51.6534 18.45 50.7827 18.7821 49.8617 19.2052C48.4111 19.8716 47.0059 20.6805 45.9815 21.2702ZM67.8044 31.2841C67.8044 31.2842 67.8027 31.2859 67.7989 31.2893C67.8024 31.2858 67.8044 31.2841 67.8044 31.2841Z" fill="white"/>
<path d="M141.912 99.9038C143.436 102.187 144.768 104.569 146.551 106.669C147.811 108.154 146.749 109.838 145.107 110.884C142.39 112.614 139.758 115.724 137.394 116.758C134.514 118.017 132.292 120.202 129.519 121.651C127.062 122.934 124.426 123.682 122.01 125.034C120.127 126.087 114.504 129.593 112.242 128.598C110.378 127.778 109.379 125.566 107.724 124.369C105.47 122.739 103.482 119.885 101.802 117.724C100.543 116.105 98.7893 114.934 97.5288 113.375C96.9052 112.603 108.654 107.827 110.044 107.394C112.573 106.608 114.046 103.828 116.637 103.045C119.56 102.161 122.387 98.9958 124.329 96.7625C125.588 95.3148 127.363 94.6666 128.694 93.3495C129.798 92.2571 130.487 90.7902 131.594 89.6948C133.307 87.9996 134.31 88.8328 135.318 90.6613C137.081 93.8585 139.853 96.8201 141.912 99.9038Z" fill="white"/>
<path fill-rule="evenodd" clip-rule="evenodd" d="M114.801 130.069C113.843 130.294 112.664 130.422 111.638 129.971C110.364 129.41 109.456 128.406 108.766 127.601C108.649 127.464 108.538 127.333 108.431 127.207C107.841 126.511 107.39 125.978 106.846 125.585C104.742 124.063 102.863 121.591 101.375 119.634C101.11 119.285 100.858 118.953 100.618 118.645C100.078 117.949 99.4166 117.332 98.6534 116.633C98.6186 116.601 98.5836 116.569 98.5483 116.537C97.8414 115.89 97.0434 115.16 96.3628 114.318C96.0697 113.955 95.9666 113.513 96.0181 113.104C96.0624 112.751 96.2111 112.491 96.3074 112.348C96.4963 112.067 96.7455 111.858 96.9108 111.729C97.2755 111.446 97.7772 111.147 98.3096 110.858C99.3998 110.265 100.898 109.563 102.424 108.886C105.454 107.543 108.811 106.207 109.599 105.962C110.502 105.681 111.264 105.032 112.324 104.095C112.345 104.076 112.367 104.057 112.388 104.038C113.346 103.191 114.58 102.1 116.204 101.609C117.352 101.262 118.593 100.422 119.849 99.2938C121.088 98.1813 122.226 96.8954 123.198 95.7783C123.975 94.8845 124.89 94.2635 125.658 93.756C125.716 93.7172 125.774 93.6792 125.831 93.6418C126.561 93.1595 127.141 92.7766 127.64 92.2832C128.08 91.848 128.453 91.3222 128.915 90.6625L128.945 90.6205C129.374 90.0076 129.889 89.2724 130.54 88.6286C131.53 87.6488 132.819 86.9082 134.255 87.4548C134.873 87.6904 135.343 88.1142 135.695 88.5289C136.051 88.9476 136.359 89.4412 136.632 89.9372C137.454 91.4286 138.527 92.8912 139.694 94.412C139.911 94.6947 140.132 94.9803 140.355 95.2684C141.308 96.5001 142.296 97.7776 143.159 99.0708C143.642 99.7929 144.088 100.496 144.523 101.18C145.542 102.784 146.497 104.287 147.695 105.699L146.577 106.648L147.695 105.699C148.717 106.902 148.818 108.304 148.298 109.528C147.825 110.641 146.883 111.531 145.913 112.149L145.107 110.884L145.913 112.149C144.817 112.847 143.728 113.797 142.565 114.811C142.412 114.945 142.258 115.079 142.102 115.214C140.843 116.308 139.424 117.507 137.995 118.132C136.706 118.696 135.538 119.478 134.278 120.361C134.147 120.453 134.015 120.546 133.881 120.64C132.762 121.428 131.548 122.283 130.213 122.98C128.999 123.614 127.749 124.123 126.576 124.599C126.489 124.635 126.402 124.67 126.315 124.706C125.043 125.224 123.86 125.718 122.742 126.343C122.566 126.441 122.344 126.569 122.088 126.717C121.069 127.304 119.488 128.214 117.895 128.947C116.892 129.407 115.815 129.831 114.801 130.069ZM120.522 124.156C120.806 123.993 121.06 123.846 121.278 123.724C122.577 122.998 123.92 122.442 125.184 121.927C125.262 121.895 125.34 121.864 125.417 121.832C126.618 121.344 127.742 120.886 128.825 120.321C129.972 119.722 131.02 118.985 132.16 118.183C132.291 118.091 132.422 117.998 132.556 117.905C133.82 117.019 135.203 116.079 136.793 115.383C137.73 114.974 138.808 114.102 140.135 112.949C140.283 112.821 140.434 112.689 140.588 112.555C141.725 111.561 143 110.447 144.302 109.618C144.973 109.191 145.384 108.715 145.537 108.354C145.606 108.192 145.612 108.082 145.602 108.009C145.593 107.941 145.559 107.818 145.408 107.64L146.552 106.669L145.408 107.64C144.068 106.061 142.939 104.285 141.874 102.61C141.464 101.965 141.064 101.335 140.665 100.737C139.865 99.5392 138.957 98.3657 138.01 97.1401C137.78 96.843 137.548 96.5427 137.314 96.2383C136.14 94.708 134.945 93.0913 134.005 91.3855C133.774 90.9672 133.579 90.671 133.41 90.4722C133.334 90.3836 133.277 90.3297 133.239 90.2978C133.138 90.3471 132.943 90.4709 132.65 90.761L131.595 89.6948L132.65 90.761C132.208 91.1979 131.834 91.7248 131.372 92.384L131.341 92.4283C130.912 93.0403 130.398 93.7741 129.75 94.4157C129.029 95.1292 128.203 95.6725 127.516 96.1241C127.447 96.1697 127.379 96.2143 127.313 96.2581C126.545 96.766 125.943 97.1928 125.462 97.7468C124.491 98.8629 123.245 100.276 121.854 101.526C120.48 102.76 118.846 103.944 117.072 104.481C116.14 104.762 115.36 105.415 114.311 106.342C114.275 106.374 114.238 106.407 114.202 106.439C113.261 107.272 112.054 108.34 110.49 108.827C109.888 109.014 106.675 110.283 103.64 111.629C102.132 112.297 100.724 112.96 99.7428 113.494C99.7302 113.5 99.7177 113.507 99.7053 113.514C99.995 113.794 100.306 114.078 100.637 114.382L100.68 114.421C101.423 115.102 102.268 115.879 102.987 116.804C103.269 117.166 103.552 117.537 103.836 117.91C105.345 119.886 106.897 121.92 108.603 123.154C109.472 123.781 110.194 124.64 110.77 125.324C110.865 125.438 110.957 125.547 111.045 125.649C111.734 126.454 112.257 126.966 112.846 127.225C112.951 127.271 113.324 127.334 114.115 127.148C114.851 126.976 115.721 126.644 116.642 126.221C118.093 125.554 119.498 124.745 120.522 124.156ZM98.6995 114.142C98.6995 114.142 98.7012 114.14 98.705 114.137C98.7015 114.14 98.6995 114.142 98.6995 114.142Z" fill="white"/>
<path d="M95.6103 9.51784C90.6504 9.88524 85.9052 12.2859 81.0293 13.75C77.788 14.7232 76.7227 17.8805 76.7227 21.2647C76.7227 23.0972 77.2427 27.6724 79.6934 26.9065C82.6072 25.996 88.8711 25.7717 90.7044 28.6236C91.9505 30.5619 93.7058 31.5717 95.5831 32.7663C96.4895 33.3431 98.2741 34.3267 98.7992 35.2193C102.444 41.4146 108.857 45.7127 114.989 49.1193C118.116 50.8568 117.084 53.2778 114.553 55.5787C111.236 58.5937 108.243 61.7749 104.223 63.9187C101.889 65.1632 100.216 65.8888 103.323 66.9985C110.453 69.5447 118.285 72.6283 124.8 76.4287C125.493 76.8326 133.069 81.1281 133.604 80.3262C135.22 77.9018 134.78 74.0026 135.348 71.2776C136.658 64.9887 135.912 58.6101 138.046 52.4444C139.312 48.7893 140.431 44.8672 142.08 41.3789C142.424 40.6517 144.865 35.2257 142.462 36.364C139.793 37.6279 132.106 40.0609 129.461 37.9448C128.316 37.0291 127.585 35.3875 126.49 34.2926C123.732 31.5346 121.058 28.6348 118.423 25.7073C114.776 21.6549 111.098 17.8652 107.248 14.0149C105.918 12.6845 104.099 9 102.124 9C99.9108 9 97.8132 9.35467 95.6103 9.51784Z" fill="#D9FF42"/>
<path fill-rule="evenodd" clip-rule="evenodd" d="M98.2098 10.7756C97.4279 10.8599 96.6134 10.9477 95.7211 11.0137C93.4357 11.183 91.1546 11.8248 88.7752 12.6414C87.9536 12.9234 87.1011 13.2339 86.2325 13.5501C84.6649 14.121 83.045 14.7109 81.4606 15.1866C79.2171 15.8603 78.2227 18.063 78.2227 21.2647C78.2227 22.0976 78.3466 23.5161 78.7085 24.575C78.894 25.1181 79.0832 25.388 79.1922 25.4849C79.1969 25.4891 79.1918 25.4929 79.1893 25.4944C79.1887 25.4948 79.1882 25.495 79.1881 25.495M98.2098 10.7756C99.5348 10.6327 100.766 10.5 102.124 10.5ZM97.648 7.81593C99.0937 7.66266 100.628 7.5 102.124 7.5C103.091 7.5 103.896 7.94738 104.494 8.41422C105.101 8.88776 105.64 9.49672 106.1 10.0729C106.47 10.5358 106.829 11.0317 107.148 11.4717C107.226 11.5803 107.303 11.6856 107.376 11.7861C107.773 12.3306 108.071 12.7167 108.309 12.9543C112.169 16.8145 115.866 20.6246 119.538 24.7038C122.166 27.6239 124.82 30.5012 127.551 33.2319C128.142 33.8235 128.639 34.5394 129.043 35.1199C129.092 35.1909 129.14 35.2598 129.186 35.3263C129.659 36.0019 130.017 36.4683 130.398 36.7735C130.694 37.01 131.289 37.2254 132.299 37.2697C133.272 37.3124 134.438 37.1878 135.667 36.9493C138.13 36.4714 140.599 35.5864 141.819 35.0084C142.221 34.8179 142.842 34.5989 143.515 34.768C144.347 34.9771 144.755 35.6263 144.905 36.1497C145.039 36.6121 145.018 37.0831 144.978 37.4306C144.934 37.8061 144.848 38.196 144.749 38.5633C144.359 40.004 143.615 41.6424 143.436 42.02C142.255 44.5177 141.366 47.2158 140.458 49.9691C140.134 50.9529 139.807 51.9438 139.464 52.9351C138.464 55.8245 138.126 58.7971 137.884 61.9306C137.844 62.4425 137.807 62.9605 137.769 63.4834C137.581 66.1098 137.384 68.8597 136.817 71.5835C136.646 72.4042 136.582 73.2841 136.508 74.2935C136.468 74.842 136.426 75.4287 136.362 76.065C136.196 77.7107 135.88 79.6164 134.852 81.1583C134.484 81.7105 133.93 81.8608 133.642 81.9031C133.342 81.9473 133.062 81.9184 132.864 81.8867C132.456 81.8216 132.003 81.6766 131.577 81.5182C130.703 81.193 129.626 80.6892 128.59 80.1712C126.505 79.1284 124.409 77.9369 124.045 77.7244C117.655 73.9974 109.932 70.9515 102.819 68.4111C102.027 68.1283 101.265 67.7849 100.765 67.2851C100.485 67.006 100.196 66.5865 100.136 66.0239C100.075 65.4539 100.276 64.9864 100.49 64.6691C100.86 64.1228 101.468 63.7338 101.892 63.4808C102.269 63.2559 102.721 63.0168 103.165 62.7818C103.284 62.7192 103.401 62.6569 103.517 62.5952C106.582 60.9605 108.989 58.7096 111.604 56.2653C112.234 55.6757 112.877 55.0749 113.544 54.4688C114.762 53.3612 115.316 52.4744 115.413 51.893C115.45 51.6652 115.418 51.491 115.309 51.3081C115.182 51.0958 114.893 50.7822 114.26 50.4305C108.097 47.0065 101.369 42.546 97.5063 35.9798C97.432 35.8536 97.1218 35.5485 96.4846 35.1106C96.0912 34.8403 95.7134 34.609 95.3497 34.3864C95.1551 34.2673 94.9645 34.1506 94.7778 34.0318C94.624 33.9339 94.468 33.8357 94.3105 33.7365C92.6343 32.6811 90.7783 31.5124 89.4427 29.4347C89.2025 29.0611 88.761 28.7035 88.0504 28.4116C87.3425 28.1209 86.4563 27.9334 85.4749 27.8486C83.496 27.6775 81.3984 27.9452 80.1409 28.3382C79.0102 28.6916 77.9732 28.4156 77.1985 27.7266C76.5207 27.1238 76.1204 26.2791 75.8696 25.545C75.3587 24.0497 75.2227 22.2644 75.2227 21.2647C75.2227 17.6979 76.3589 13.5862 80.5979 12.3133C82.1145 11.858 83.5715 11.3265 85.0719 10.7792C85.9595 10.4555 86.8622 10.1262 87.8014 9.80388C90.2536 8.96229 92.8251 8.22005 95.4995 8.02194C96.1805 7.9715 96.9025 7.89496 97.648 7.81593ZM102.124 10.5C102.145 10.5 102.308 10.5132 102.648 10.7788ZM102.648 10.7788C102.979 11.0376 103.347 11.433 103.755 11.9442ZM103.755 11.9442C104.077 12.3468 104.383 12.7692 104.697 13.2034ZM104.697 13.2034C104.782 13.3195 104.866 13.4364 104.952 13.5541ZM104.952 13.5541C105.332 14.0745 105.76 14.6479 106.188 15.0756ZM106.188 15.0756C110.028 18.9159 113.685 22.6853 117.308 26.7107ZM79.1893 25.4944C79.1931 25.4926 79.2071 25.4869 79.246 25.4748C80.9022 24.9572 83.3935 24.6575 85.7332 24.8597C86.9112 24.9615 88.1169 25.1957 89.1902 25.6366C90.2607 26.0763 91.2897 26.7601 91.9662 27.8124C92.9268 29.3066 94.2307 30.133 95.9934 31.2501C96.1226 31.332 96.2542 31.4154 96.3884 31.5008C96.4986 31.5709 96.6446 31.6605 96.8125 31.7635C97.2099 32.0073 97.7294 32.3259 98.1837 32.6381C98.7966 33.0593 99.6413 33.6923 100.092 34.4587C103.518 40.2833 109.617 44.419 115.717 47.8081C116.648 48.3252 117.403 48.9657 117.883 49.768C118.381 50.5995 118.518 51.5002 118.372 52.3825C118.101 54.0211 116.874 55.4953 115.562 56.6886C114.967 57.2295 114.372 57.7867 113.771 58.35C111.136 60.8182 108.377 63.4032 104.929 65.2423C104.787 65.3179 104.652 65.3894 104.523 65.4574C104.374 65.5368 104.232 65.6115 104.099 65.6829C111.174 68.2168 118.999 71.3081 125.556 75.1331C125.884 75.3244 127.922 76.4826 129.932 77.4881C130.944 77.9942 131.905 78.4392 132.623 78.7065C132.666 78.7223 132.707 78.7372 132.746 78.7512C133.075 77.9529 133.257 76.9519 133.377 75.7643C133.421 75.3269 133.456 74.8451 133.494 74.3452C133.578 73.2111 133.669 71.9838 133.88 70.9716C134.402 68.4627 134.583 65.9485 134.772 63.3252C134.811 62.788 134.85 62.2462 134.893 61.699C135.138 58.5295 135.495 55.23 136.629 51.9537C136.939 51.0579 137.246 50.1276 137.558 49.1796C138.482 46.3762 139.457 43.4178 140.724 40.7378L142.08 41.3789L140.724 40.7378C140.865 40.4403 141.354 39.3548 141.692 38.3171C140.204 38.8905 138.221 39.5097 136.238 39.8944C134.882 40.1577 133.463 40.3236 132.167 40.2668C130.908 40.2116 129.551 39.9376 128.524 39.1161C127.761 38.5056 127.181 37.6933 126.728 37.0456C126.68 36.9776 126.634 36.9111 126.589 36.8461C126.158 36.2288 125.819 35.7432 125.43 35.3533C122.644 32.5679 119.949 29.6458 117.308 26.7107M143.188 37.6854C143.188 37.6859 143.181 37.6886 143.168 37.6919C143.182 37.6866 143.188 37.6849 143.188 37.6854ZM133.361 78.9273C133.362 78.9276 133.36 78.9275 133.353 78.9266C133.357 78.9269 133.36 78.9272 133.361 78.9273Z" fill="#D9FF42"/>
<path d="M70.8975 135.908C75.8574 135.541 80.6026 133.14 85.4785 131.676C88.7198 130.703 89.7852 127.545 89.7852 124.161C89.7852 122.329 89.2651 117.753 86.8144 118.519C83.9007 119.43 77.6367 119.654 75.8034 116.802C74.5573 114.864 72.802 113.854 70.9247 112.659C70.0183 112.083 68.2337 111.099 67.7086 110.207C64.0643 104.011 57.651 99.7131 51.5192 96.3065C48.3916 94.5689 49.4242 92.148 51.9553 89.8471C55.2718 86.832 58.2652 83.6509 62.2849 81.5071C64.6184 80.2625 66.2914 79.5369 63.1843 78.4272C56.0552 75.8811 48.2225 72.7975 41.7074 68.997C41.0151 68.5932 33.4387 64.2977 32.9041 65.0996C31.2878 67.5239 31.7275 71.4232 31.1598 74.1482C29.8496 80.437 30.5958 86.8157 28.4615 92.9814C27.1963 96.6365 26.0768 100.559 24.4278 104.047C24.084 104.774 21.6431 110.2 24.0462 109.062C26.7144 107.798 34.4017 105.365 37.0468 107.481C38.1914 108.397 38.9227 110.038 40.0176 111.133C42.7756 113.891 45.4503 116.791 48.0851 119.718C51.7322 123.771 55.4093 127.561 59.2596 131.411C60.59 132.741 62.4088 136.426 64.3835 136.426C66.597 136.426 68.6946 136.071 70.8975 135.908Z" fill="#D9FF42"/>
<path fill-rule="evenodd" clip-rule="evenodd" d="M68.298 134.65C69.0799 134.566 69.8944 134.478 70.7867 134.412C73.0722 134.243 75.3532 133.601 77.7326 132.784C78.5542 132.502 79.4067 132.192 80.2753 131.876C81.8429 131.305 83.4628 130.715 85.0472 130.239C87.2907 129.565 88.2852 127.363 88.2852 124.161C88.2852 123.328 88.1612 121.91 87.7994 120.851C87.6138 120.308 87.4246 120.038 87.3156 119.941C87.311 119.937 87.316 119.933 87.3185 119.931C87.3191 119.931 87.3196 119.931 87.3197 119.931M68.298 134.65C66.973 134.793 65.7415 134.926 64.3835 134.926ZM68.8598 137.61C67.4141 137.763 65.8797 137.926 64.3835 137.926C63.4172 137.926 62.6116 137.478 62.0138 137.012C61.4073 136.538 60.8674 135.929 60.4075 135.353C60.0381 134.89 59.6789 134.394 59.3602 133.954C59.2815 133.845 59.2053 133.74 59.132 133.64C58.7347 133.095 58.4365 132.709 58.1989 132.472C54.3387 128.611 50.6414 124.801 46.9701 120.722C44.3421 117.802 41.6877 114.925 38.957 112.194C38.3654 111.602 37.8683 110.886 37.4652 110.306C37.4159 110.235 37.3681 110.166 37.3216 110.1C36.8491 109.424 36.4912 108.957 36.1098 108.652C35.8141 108.416 35.2185 108.2 34.2091 108.156C33.2356 108.113 32.0701 108.238 30.8409 108.476C28.3776 108.954 25.9085 109.839 24.6883 110.417C24.2864 110.608 23.6663 110.827 22.993 110.658C22.1611 110.449 21.7532 109.799 21.6023 109.276C21.4691 108.814 21.4901 108.343 21.5301 107.995C21.5734 107.62 21.6596 107.23 21.7589 106.862C22.1484 105.422 22.8932 103.783 23.0717 103.406C24.2524 100.908 25.142 98.21 26.0498 95.4567C26.3742 94.4729 26.7009 93.482 27.044 92.4907C28.0442 89.6013 28.3815 86.6286 28.6241 83.4952C28.6638 82.9833 28.7009 82.4653 28.7384 81.9424C28.9267 79.3159 29.1238 76.5661 29.6913 73.8423C29.8623 73.0215 29.9262 72.1417 29.9996 71.1323C30.0395 70.5838 30.0822 69.9971 30.1463 69.3608C30.3121 67.7151 30.6281 65.8094 31.656 64.2675C32.0241 63.7153 32.5775 63.565 32.8654 63.5227C33.1662 63.4785 33.4463 63.5074 33.6441 63.539C34.052 63.6042 34.505 63.7492 34.9308 63.9076C35.8049 64.2328 36.882 64.7366 37.9176 65.2546C40.0024 66.2974 42.099 67.4889 42.4632 67.7014C48.8524 71.4284 56.5759 74.4743 63.6888 77.0146C64.4809 77.2975 65.2431 77.6409 65.7432 78.1407C66.0224 78.4198 66.3119 78.8393 66.372 79.4019C66.4328 79.9719 66.232 80.4394 66.0175 80.7567C65.6482 81.303 65.0395 81.6919 64.6153 81.945C64.2384 82.1699 63.7865 82.409 63.3425 82.644C63.2242 82.7066 63.1064 82.7689 62.9908 82.8306C59.9258 84.4653 57.5184 86.7162 54.9041 89.1605C54.2736 89.75 53.631 90.3509 52.9643 90.957C51.7459 92.0646 51.1913 92.9513 51.0951 93.5328C51.0575 93.7606 51.0898 93.9348 51.1992 94.1177C51.3262 94.3299 51.6147 94.6436 52.2477 94.9953C58.411 98.4193 65.1391 102.88 69.0015 109.446C69.0758 109.572 69.386 109.877 70.0232 110.315C70.4166 110.586 70.7944 110.817 71.1581 111.039C71.3527 111.158 71.5433 111.275 71.73 111.394C71.8838 111.492 72.0398 111.59 72.1973 111.689C73.8735 112.745 75.7295 113.913 77.0651 115.991C77.3053 116.365 77.7468 116.722 78.4574 117.014C79.1653 117.305 80.0515 117.492 81.0329 117.577C83.0118 117.748 85.1094 117.481 86.367 117.088C87.4976 116.734 88.5346 117.01 89.3093 117.699C89.9871 118.302 90.3874 119.147 90.6382 119.881C91.1491 121.376 91.2852 123.161 91.2852 124.161C91.2852 127.728 90.1489 131.84 85.9099 133.112C84.3933 133.568 82.9363 134.099 81.4359 134.647C80.5483 134.97 79.6456 135.3 78.7064 135.622C76.2542 136.463 73.6827 137.206 71.0083 137.404C70.3273 137.454 69.6053 137.531 68.8598 137.61ZM64.3835 134.926C64.3626 134.926 64.2002 134.913 63.8601 134.647ZM63.8601 134.647C63.5285 134.388 63.1604 133.993 62.7524 133.482ZM62.7524 133.482C62.4311 133.079 62.125 132.657 61.8103 132.222ZM61.8103 132.222C61.7262 132.106 61.6414 131.989 61.5556 131.872ZM61.5556 131.872C61.1759 131.351 60.7479 130.778 60.3203 130.35ZM60.3203 130.35C56.48 126.51 52.8229 122.741 49.2 118.715ZM87.3185 119.931C87.3147 119.933 87.3007 119.939 87.2618 119.951C85.6057 120.469 83.1144 120.768 80.7746 120.566C79.5966 120.464 78.3909 120.23 77.3176 119.789C76.2471 119.349 75.2181 118.666 74.5416 117.613C73.581 116.119 72.2771 115.293 70.5144 114.176C70.3852 114.094 70.2536 114.01 70.1194 113.925C70.0093 113.855 69.8632 113.765 69.6953 113.662C69.2979 113.419 68.7784 113.1 68.3241 112.788C67.7112 112.366 66.8666 111.733 66.4157 110.967C62.9895 105.142 56.8911 101.007 50.7907 97.6177C49.8599 97.1006 49.1047 96.4601 48.6247 95.6578C48.1272 94.8262 47.9894 93.9256 48.1354 93.0433C48.4064 91.4047 49.6336 89.9305 50.9463 88.7372C51.5412 88.1963 52.136 87.6391 52.7372 87.0758C55.3717 84.6075 58.1309 82.0225 61.579 80.1835C61.7209 80.1079 61.8558 80.0364 61.9844 79.9683C62.1342 79.889 62.2754 79.8142 62.4086 79.7429C55.334 77.209 47.5087 74.1177 40.9516 70.2927C40.6236 70.1013 38.5858 68.9432 36.5756 67.9377C35.5638 67.4316 34.6032 66.9866 33.8847 66.7193C33.842 66.7034 33.8012 66.6886 33.7621 66.6746C33.4329 67.4729 33.2508 68.4738 33.1312 69.6615C33.0871 70.0989 33.0513 70.5807 33.0143 71.0805C32.9301 72.2147 32.8391 73.4419 32.6282 74.4541C32.1055 76.9631 31.9244 79.4773 31.7353 82.1006C31.6966 82.6378 31.6576 83.1796 31.6152 83.7268C31.3698 86.8963 31.0131 90.1958 29.879 93.4721C29.5689 94.3679 29.2623 95.2982 28.9498 96.2462C28.0259 99.0496 27.0508 102.008 25.7839 104.688L24.4278 104.047L25.7839 104.688C25.6433 104.985 25.1535 106.071 24.8158 107.109C26.3041 106.535 28.2868 105.916 30.2695 105.531C31.6262 105.268 33.0452 105.102 34.3405 105.159C35.5997 105.214 36.9569 105.488 37.9839 106.31C38.747 106.92 39.327 107.732 39.7801 108.38C39.8276 108.448 39.874 108.515 39.9193 108.58C40.3497 109.197 40.6883 109.683 41.0783 110.073C43.8636 112.858 46.5585 115.78 49.2 118.715M23.3197 107.74C23.3199 107.74 23.3269 107.737 23.34 107.734C23.326 107.739 23.3194 107.741 23.3197 107.74ZM33.1472 66.4985C33.1454 66.4982 33.1479 66.4983 33.155 66.4992C33.1509 66.4989 33.1482 66.4986 33.1472 66.4985Z" fill="#D9FF42"/>
</svg>
