<svg width="165" height="146" viewBox="0 0 165 146" fill="none" xmlns="http://www.w3.org/2000/svg">
<path d="M24.3167 112.573C20.9423 118.426 19 124.789 19 131.523V131.565C18.9999 134.345 18.9999 135.676 22.085 135.676H29.6334C42.1512 135.676 54.8892 136.427 67.3752 135.643C79.8587 134.859 92.6013 134.689 105.117 134.489C110.329 134.406 115.569 133.982 120.739 133.171C126.444 132.276 132.506 130.337 138.297 130.337C140.088 130.337 146.431 130.314 145.977 128.26C144.921 123.488 144.075 118.419 142.761 113.726C140.465 105.531 132.464 100.076 125.596 95.8961C117.978 91.2593 110.895 87.642 102.295 85.119C93.5904 82.5654 84.0627 85.0542 75.2518 85.9759C65.3094 87.0159 55.1715 90.9579 46.1413 95.0063C41.2345 97.2061 36.32 98.7756 31.9963 102.125C28.6823 104.692 26.3841 108.987 24.3167 112.573Z" fill="white"/>
<path d="M58.6739 71.8523C61.5835 72.7791 63.9284 76 67.2237 76C72.463 73.3449 77.4523 72.4156 83.5196 71.1857C89.7148 69.9299 97.4689 65.2616 101.387 60.298C105.702 54.8311 108 50.9418 108 44.0034C108 31.7276 100.5 16.673 86.6619 16.673C76.2011 16.673 69.1968 24.7079 69.1968 35.0414C69.1968 36.8098 68.0195 31.7088 67.5526 30.0049C66.8158 27.3165 66.0233 25.0624 64.9584 22.4131C63.2695 18.2116 61.5835 12.9408 57.3585 10.6737C52.7488 8.20012 49.9466 8.81118 44.8991 10.3033C42.1366 11.12 39.4554 10.8214 37.2992 13.0067C34.9002 15.4383 32.8656 17.8787 31.3801 21.0059C25.9781 32.3775 30.3549 48.5262 38.6511 57.3353C41.9298 60.8166 45.7591 63.3595 49.6125 66.1492C52.2206 68.0374 55.5767 70.8657 58.6739 71.8523Z" fill="#FF6442"/>
</svg>
