<svg width="165" height="146" viewBox="0 0 165 146" fill="none" xmlns="http://www.w3.org/2000/svg">
<path d="M66.4457 20.5457C68.0032 22.6547 70.6221 28.7705 73.908 29.1001C73.908 30.6773 72.906 36.7527 71.5094 37.7614C69.9727 38.8711 70.4636 42.4338 69.7622 44.0168C68.6894 46.438 69.179 49.1963 67.2156 51.4751C64.8813 54.1845 62.7227 57.3783 59.931 59.7889C57.501 61.8872 54.1951 63.1058 52.8832 66.1512C52.2472 67.6276 52.5871 69.6295 52.5871 71.1769C52.5871 74.6167 53.0375 78.1999 51.5211 81.4422C48.0319 88.9023 38.2251 90.4297 31.8289 95.049C26.5035 98.895 21.6719 105.428 21.6719 111.623C21.6719 117.227 22.3794 122.122 27.772 125.337C32.7812 128.323 38.6093 130.149 44.5622 130.149C51.1132 130.149 57.7129 129.668 64.3136 129.668C71.6661 129.668 79.6121 128.914 86.8782 129.908C92.6075 130.692 97.4052 132.635 102.81 134.586C108.06 136.482 113.907 135.923 119.452 135.923C122.492 135.923 124.285 135.195 126.411 133.276C129.373 130.602 131.295 127.105 133.488 123.893C136.262 119.831 139.141 115.54 140.536 110.901C142.828 103.276 146.167 94.0727 143.082 86.361C140.443 79.7621 134.152 74.8346 130.675 68.5572C127.917 63.5787 129.301 58.3291 128.158 53.0523C127.797 51.386 126.865 48.2894 125.315 47.1445C123.109 45.5152 119.987 45.2089 117.616 43.7495C113.075 40.9546 108.333 40.3888 103.343 38.7238C98.1947 37.0063 85.7156 36.4429 86.1674 29.1001C86.3074 26.8258 89.1188 24.511 90.6981 23.0853C94.1373 19.9806 97.9368 17.8485 100.233 13.7022C101.097 12.1436 100.16 10.7725 100.026 9.26459C99.9101 7.9565 97.8543 8.37087 96.7094 8.40915C92.6945 8.54339 88.3686 11.2671 85.3975 13.4616C82.2378 15.7954 81.0512 18.2365 79.8896 21.7754C79.0616 24.2983 78.9355 22.9125 77.1061 21.615C75.4486 20.4393 74.4816 19.364 73.908 17.5516C72.8225 14.1219 69.2775 10.8748 66.9787 8.03489C65.4674 6.16796 59.5164 6.95473 59.5164 9.37152C59.5164 11.3484 61.7457 13.4425 62.7145 15.1457C63.8023 17.058 65.1286 18.7622 66.4457 20.5457Z" fill="white"/>
<path d="M90.1404 65.6222C91.5092 62.0634 91.4571 57.7551 92.7184 53.9225C93.5718 52.9969 95.9936 54.3191 96.8827 54.3191C99.7293 54.3191 98.2464 57.5023 97.8521 59.2766C97.4596 61.043 97.2676 62.9241 96.7725 64.7189C96.4142 66.0177 95.8912 68.0614 95.8912 69.3899C95.8912 74.1237 97.5812 78.6167 100.43 82.2795C101.119 83.1655 101.047 85.7387 101.047 86.8404V91.203V91.3434C101.047 95.1556 101.047 98.9356 100.628 102.704C100.504 103.827 100.552 105.803 99.064 105.877C97.1113 105.975 95.0778 105.657 93.137 105.899C91.2594 106.134 89.4248 106.274 87.4744 106.274C85.1018 106.274 82.9867 105.555 80.7322 105.481C76.7897 105.351 73.6184 103.374 74.7832 99.4435C75.6289 96.5891 76.2656 93.728 76.8543 90.7844C77.2956 88.5776 77.9363 86.2565 78.5288 84.0642C78.7858 83.1135 79.4346 79.9376 80.2254 79.305C80.9711 78.7084 82.2562 77.1893 82.8033 76.4406C83.6458 75.2877 84.851 74.3048 85.888 73.2678C87.1708 71.9851 88.1092 71.1028 88.9506 69.5882C89.6343 68.3577 89.6518 66.8927 90.1404 65.6222Z" fill="#4299FF" stroke="#4299FF" stroke-width="3.25862" stroke-linecap="round"/>
</svg>
