<svg width="44" height="240" viewBox="0 0 44 240" fill="none" xmlns="http://www.w3.org/2000/svg">
<path d="M15.8 0.750002L15.8 1.8C15.8 3.16667 16.4667 3.85 17.8 3.85L34.65 3.85C35.8833 3.85 36.5 3.16667 36.5 1.8L36.5 0.750001L42.35 0.75L42.35 16.15L36.5 16.15L36.5 15.1C36.5 13.7667 35.8833 13.1 34.65 13.1L15.8 13.1L15.8 16.2C15.8 17.5667 16.4667 18.25 17.8 18.25L19.95 18.25L19.95 26.65L10 26.65L10 0.750002L15.8 0.750002ZM9.2 37.5004C9.2 33.1337 10.2667 29.7337 12.4 27.3004C14.5333 24.8671 17.6833 23.6504 21.85 23.6504C26.2167 23.6504 29.45 24.7837 31.55 27.0504C33.6833 29.3171 34.75 32.5671 34.75 36.8004C34.75 40.9337 33.6333 44.0671 31.4 46.2004C29.2 48.3671 26.25 49.4504 22.55 49.4504L20.15 49.4504L20.15 32.9004C18.15 32.9004 16.7333 33.2504 15.9 33.9504C15.0667 34.6504 14.65 35.8837 14.65 37.6504C14.65 38.8837 14.8667 39.9837 15.3 40.9504L17.3 40.9504L17.3 48.6004L12.85 48.6004C11.65 47.3004 10.7333 45.7671 10.1 44.0004C9.5 42.2337 9.2 40.0671 9.2 37.5004ZM24.95 40.2504C26.3167 40.2504 27.3667 39.9171 28.1 39.2504C28.8667 38.6171 29.25 37.7337 29.25 36.6004C29.25 35.4004 28.8667 34.4837 28.1 33.8504C27.3667 33.2171 26.3167 32.9004 24.95 32.9004L24.95 40.2504ZM2.6868e-06 64.8758C2.57898e-06 62.4091 0.316669 60.3091 0.950002 58.5758C1.55 56.8758 2.45 55.3425 3.65 53.9758L7.5 53.9758L7.5 61.6258L6.15 61.6258C5.51667 62.3925 5.2 63.4425 5.2 64.7758C5.2 65.8091 5.5 66.5591 6.1 67.0258C6.7 67.4925 7.5 67.7258 8.5 67.7258L12.1 67.7258C11.3667 66.7591 10.8333 65.7591 10.5 64.7258C10.1667 63.6925 10 62.4425 10 60.9758C10 57.3091 11.0167 54.5091 13.05 52.5758C15.0833 50.6424 18.2 49.6758 22.4 49.6758C26.3333 49.6758 29.3667 50.7091 31.5 52.7758C33.6667 54.8758 34.75 57.6424 34.75 61.0758C34.75 63.1091 34.4333 64.7591 33.8 66.0258C33.1667 67.3258 32.15 68.4591 30.75 69.4258L34 69.8258L34 77.9258L28.25 77.9258L28.25 77.4258C28.25 76.7924 28.0833 76.3591 27.75 76.1258C27.4167 75.8924 26.8833 75.7758 26.15 75.7758L10.25 75.7758C7.11667 75.7758 4.63334 74.8258 2.8 72.9258C0.933336 71.0591 2.83979e-06 68.3758 2.6868e-06 64.8758ZM15.3 63.0758C15.3 64.5425 15.8333 65.5758 16.9 66.1758C18 66.8091 19.55 67.1258 21.55 67.1258L23.1 67.1258C25 67.1258 26.55 66.8091 27.75 66.1758C28.95 65.5758 29.55 64.5424 29.55 63.0758C29.55 61.4424 29.0167 60.3258 27.95 59.7258C26.8833 59.1591 25.0333 58.8758 22.4 58.8758C20.6333 58.8758 19.2333 58.9925 18.2 59.2258C17.2 59.4591 16.4667 59.8758 16 60.4758C15.5333 61.0758 15.3 61.9425 15.3 63.0758ZM9.2 92.0414C9.2 87.6747 10.2667 84.2747 12.4 81.8414C14.5333 79.4081 17.6833 78.1914 21.85 78.1914C26.2167 78.1914 29.45 79.3247 31.55 81.5914C33.6833 83.8581 34.75 87.1081 34.75 91.3414C34.75 95.4747 33.6333 98.6081 31.4 100.741C29.2 102.908 26.25 103.991 22.55 103.991L20.15 103.991L20.15 87.4414C18.15 87.4414 16.7333 87.7914 15.9 88.4914C15.0667 89.1914 14.65 90.4247 14.65 92.1914C14.65 93.4247 14.8667 94.5247 15.3 95.4914L17.3 95.4914L17.3 103.141L12.85 103.141C11.65 101.841 10.7333 100.308 10.1 98.5414C9.5 96.7747 9.2 94.6081 9.2 92.0414ZM24.95 94.7914C26.3167 94.7914 27.3667 94.4581 28.1 93.7914C28.8667 93.1581 29.25 92.2747 29.25 91.1414C29.25 89.9414 28.8667 89.0247 28.1 88.3914C27.3667 87.7581 26.3167 87.4414 24.95 87.4414L24.95 94.7914ZM15.9 105.486L15.9 105.986C15.9 107.386 16.5333 108.086 17.8 108.086L26.1 108.086C27.3667 108.086 28 107.436 28 106.136L28 105.486L34 105.486L34 113.886L30.8 114.236C33.4333 116.403 34.75 119.47 34.75 123.436C34.75 126.436 34.0167 128.636 32.55 130.036C31.1167 131.436 29.0167 132.136 26.25 132.136L17.8 132.136C16.5333 132.136 15.9 132.82 15.9 134.186L15.9 135.136L10 135.136L10 122.736L26.2 122.736C27.2333 122.736 27.9833 122.52 28.45 122.086C28.9167 121.653 29.15 121.003 29.15 120.136C29.15 119.203 28.9167 118.52 28.45 118.086C28.0167 117.653 27.2667 117.436 26.2 117.436L17.8 117.436C17.1667 117.436 16.6833 117.553 16.35 117.786C16.05 118.053 15.9 118.503 15.9 119.136L15.9 119.786L10 119.786L10 105.486L15.9 105.486ZM9.30001 147.15C9.30001 143.75 10.3167 141.067 12.35 139.1C14.3833 137.134 17.3667 136.15 21.3 136.15C25.6333 136.15 28.95 137.1 31.25 139C33.5833 140.934 34.75 143.767 34.75 147.5C34.75 148.934 34.5833 150.15 34.25 151.15C33.9167 152.15 33.3667 153.167 32.6 154.2L35.25 154.2C36.5167 154.2 37.15 153.517 37.15 152.15L37.15 151.6L43.1 151.6L43.1 162.3L17.5 162.3C16.7667 162.3 16.2667 162.417 16 162.65C15.7333 162.884 15.6 163.35 15.6 164.05L15.6 164.45L10 164.45L10 156.35L13.05 155.95C11.7833 154.817 10.8333 153.55 10.2 152.15C9.60001 150.75 9.30001 149.084 9.30001 147.15ZM14.5 149.55C14.5 150.984 15.0833 152.017 16.25 152.65C17.45 153.317 18.9833 153.65 20.85 153.65L23 153.65C25.0333 153.65 26.5833 153.334 27.65 152.7C28.7167 152.067 29.25 151.017 29.25 149.55C29.25 147.95 28.6167 146.85 27.35 146.25C26.1167 145.65 24.15 145.35 21.45 145.35C19.6833 145.35 18.3 145.467 17.3 145.7C16.3333 145.934 15.6167 146.35 15.15 146.95C14.7167 147.55 14.5 148.417 14.5 149.55ZM9.25001 173.603C9.25001 170.636 9.85001 168.403 11.05 166.903C12.2833 165.436 13.9833 164.703 16.15 164.703C18.65 164.703 20.5167 165.536 21.75 167.203C23.0167 168.903 23.7667 171.42 24 174.753L24.3 179.153L26.95 179.153C28.4167 179.153 29.15 178.386 29.15 176.853C29.15 175.986 28.8167 175.236 28.15 174.603L26.5 174.603L26.5 166.903L31.8 166.903C33.7667 170.07 34.75 173.553 34.75 177.353C34.75 181.053 33.95 183.836 32.35 185.703C30.75 187.57 28.6167 188.503 25.95 188.503L17.35 188.503C16.1833 188.503 15.6 189.036 15.6 190.103L15.6 190.703L10 190.703L10 183.553L13.35 182.803C11.85 181.536 10.7833 180.236 10.15 178.903C9.55001 177.57 9.25001 175.803 9.25001 173.603ZM14.85 175.703C14.85 178.003 15.8833 179.153 17.95 179.153L19.65 179.153L19.35 175.803C19.2167 174.003 18.4333 173.103 17 173.103C16.3333 173.103 15.8 173.32 15.4 173.753C15.0333 174.22 14.85 174.87 14.85 175.703ZM15.9 191.717L15.9 192.267C15.9 193.633 16.5333 194.317 17.8 194.317L26.2 194.317C26.8 194.317 27.2667 194.167 27.6 193.867C27.9333 193.6 28.1 193.117 28.1 192.417L28.1 191.817L34 191.817L34 202.117L31.6 202.667C32.4333 203.233 33.0333 204.05 33.4 205.117C33.8 206.217 34 207.283 34 208.317L34 211.567L28.1 211.567L28.1 206.867C28.1 205.733 27.8333 204.917 27.3 204.417C26.7667 203.95 25.9333 203.717 24.8 203.717L17.8 203.717C17.1667 203.717 16.6833 203.85 16.35 204.117C16.05 204.417 15.9 204.9 15.9 205.567L15.9 206.067L10 206.067L10 191.717L15.9 191.717ZM9.73888e-06 226.209C9.63397e-06 223.809 0.316676 221.659 0.950009 219.759C1.58334 217.859 2.48334 216.292 3.65001 215.059L7.70001 215.059L7.70001 222.709L6.40001 222.709C5.96668 223.142 5.66668 223.609 5.50001 224.109C5.30001 224.642 5.20001 225.292 5.20001 226.059C5.20001 228.259 6.46668 229.359 9.00001 229.359L11.25 229.359C10.95 228.492 10.7 227.559 10.5 226.559C10.3333 225.592 10.25 224.775 10.25 224.109C10.25 220.775 11.0333 218.142 12.6 216.209C14.1667 214.309 16.35 213.359 19.15 213.359L26.2 213.359C26.8 213.359 27.2667 213.175 27.6 212.809C27.9333 212.475 28.1 211.959 28.1 211.259L28.1 210.309L34 210.309L34 222.709L18.75 222.709C16.7167 222.709 15.7 223.692 15.7 225.659C15.7 226.659 15.9167 227.392 16.35 227.859C16.8167 228.325 17.5667 228.559 18.6 228.559L26.2 228.559C26.8667 228.559 27.35 228.442 27.65 228.209C27.95 228.009 28.1 227.575 28.1 226.909L28.1 226.209L34 226.209L34 237.909L11.45 237.909C9.15001 237.909 7.15001 237.425 5.45001 236.459C3.71668 235.525 2.38334 234.175 1.45001 232.409C0.483343 230.675 9.84379e-06 228.609 9.73888e-06 226.209Z" fill="#AE42FF"/>
<path d="M5 2.01072e-06L5.00001 239.659L2.50001 239.659L2.5 2.12e-06L5 2.01072e-06Z" fill="#AE42FF"/>
</svg>
