<svg width="41" height="104" viewBox="0 0 41 104" fill="none" xmlns="http://www.w3.org/2000/svg">
<path d="M13.8 1.25L13.8 2.3C13.8 3.66667 14.4167 4.35 15.65 4.35L32.65 4.35C33.8833 4.35 34.5 3.66667 34.5 2.3L34.5 1.25L40.35 1.25L40.35 19.2C40.35 23.0333 39.4667 26.0333 37.7 28.2C35.9333 30.3667 33.3167 31.45 29.85 31.45C25.4167 31.45 22.2 29.4 20.2 25.3L15.15 28.3C14.65 28.5667 14.3 28.9 14.1 29.3C13.9 29.7333 13.8 30.3167 13.8 31.05L13.8 31.85L8 31.85L8 18.75L13.8 18.75L13.8 20.35L19.05 17.25L19.05 13.6L15.4 13.6C14.8 13.6 14.3833 13.7 14.15 13.9C13.9167 14.1333 13.8 14.5333 13.8 15.1L13.8 15.7L8 15.7L8 1.25L13.8 1.25ZM24.85 17.9C24.85 19.4667 25.25 20.5833 26.05 21.25C26.85 21.95 28.1167 22.3 29.85 22.3C31.5833 22.3 32.7833 21.95 33.45 21.25C34.15 20.5833 34.5 19.4667 34.5 17.9L34.5 13.6L24.85 13.6L24.85 17.9ZM7.25 39.9723C7.25 37.0056 7.85 34.7723 9.05 33.2723C10.2833 31.8056 11.9833 31.0723 14.15 31.0723C16.65 31.0723 18.5167 31.9056 19.75 33.5723C21.0167 35.2723 21.7667 37.7889 22 41.1223L22.3 45.5223L24.95 45.5223C26.4167 45.5223 27.15 44.7556 27.15 43.2223C27.15 42.3556 26.8167 41.6056 26.15 40.9723L24.5 40.9723L24.5 33.2723L29.8 33.2723C31.7667 36.4389 32.75 39.9223 32.75 43.7223C32.75 47.4223 31.95 50.2056 30.35 52.0723C28.75 53.9389 26.6167 54.8723 23.95 54.8723L15.35 54.8723C14.1833 54.8723 13.6 55.4056 13.6 56.4723L13.6 57.0723L8 57.0723L8 49.9223L11.35 49.1723C9.85 47.9056 8.78334 46.6056 8.15 45.2723C7.55 43.9389 7.25 42.1723 7.25 39.9723ZM12.85 42.0723C12.85 44.3723 13.8833 45.5223 15.95 45.5223L17.65 45.5223L17.35 42.1723C17.2167 40.3723 16.4333 39.4723 15 39.4723C14.3333 39.4723 13.8 39.6889 13.4 40.1223C13.0333 40.5889 12.85 41.2389 12.85 42.0723ZM13.9 58.0859L13.9 58.6359C13.9 60.0026 14.5333 60.6859 15.8 60.6859L24.2 60.6859C24.8 60.6859 25.2667 60.5359 25.6 60.2359C25.9333 59.9693 26.1 59.4859 26.1 58.7859L26.1 58.1859L32 58.1859L32 68.4859L29.6 69.0359C30.4333 69.6026 31.0333 70.4193 31.4 71.4859C31.8 72.5859 32 73.6526 32 74.6859L32 77.9359L26.1 77.9359L26.1 73.2359C26.1 72.1026 25.8333 71.2859 25.3 70.7859C24.7667 70.3193 23.9333 70.0859 22.8 70.0859L15.8 70.0859C15.1667 70.0859 14.6833 70.2193 14.35 70.4859C14.05 70.7859 13.9 71.2693 13.9 71.9359L13.9 72.4359L8 72.4359L8 58.0859L13.9 58.0859ZM7.2 90.5395C7.2 86.1728 8.26667 82.7728 10.4 80.3395C12.5333 77.9061 15.6833 76.6895 19.85 76.6895C24.2167 76.6895 27.45 77.8228 29.55 80.0895C31.6833 82.3561 32.75 85.6061 32.75 89.8395C32.75 93.9728 31.6333 97.1061 29.4 99.2395C27.2 101.406 24.25 102.489 20.55 102.489L18.15 102.489L18.15 85.9395C16.15 85.9395 14.7333 86.2895 13.9 86.9895C13.0667 87.6895 12.65 88.9228 12.65 90.6895C12.65 91.9228 12.8667 93.0228 13.3 93.9895L15.3 93.9895L15.3 101.639L10.85 101.639C9.65 100.339 8.73334 98.8061 8.1 97.0395C7.5 95.2728 7.2 93.1061 7.2 90.5395ZM22.95 93.2895C24.3167 93.2895 25.3667 92.9561 26.1 92.2895C26.8667 91.6561 27.25 90.7728 27.25 89.6395C27.25 88.4395 26.8667 87.5228 26.1 86.8895C25.3667 86.2561 24.3167 85.9395 22.95 85.9395L22.95 93.2895Z" fill="#4299FF"/>
<path d="M3 0.500002L3 103.239L0.500004 103.239L0.5 0.500002L3 0.500002Z" fill="#4299FF"/>
</svg>
