<svg width="24" height="24" viewBox="0 0 24 24" fill="none" xmlns="http://www.w3.org/2000/svg">
<path fill-rule="evenodd" clip-rule="evenodd" d="M1 1.06098C1.00029 1.09298 1.72216 2.11277 2.60415 3.32727C3.48615 4.54177 5.34038 7.0956 6.72459 9.00247L9.24131 12.4695L5.99168 16.4018C4.20433 18.5646 2.42995 20.709 2.04854 21.1671L1.35511 22H3.04935H4.74367L7.77924 18.3584C9.44888 16.3556 10.8358 14.7169 10.8614 14.7169C10.887 14.7169 12.0986 16.3556 13.5537 18.3584L16.1995 22H19.6565C22.9562 22 23.1069 21.9938 22.9657 21.8644C22.8844 21.7898 20.9076 19.0698 18.5729 15.8199L14.3282 9.911L16.7394 7.02587C18.0656 5.43907 19.7428 3.43412 20.4666 2.57037L21.7826 1L20.0671 1.02076L18.3517 1.04161L15.582 4.32971C14.0586 6.13818 12.7813 7.62665 12.7434 7.63734C12.7055 7.64811 11.602 6.15972 10.2913 4.32987L7.908 1.00287H4.45374C2.55392 1.00287 0.999705 1.02898 1 1.06098ZM12.9988 11.4627L19.0468 19.8693L18.1852 19.8912C17.7113 19.9033 17.2848 19.8975 17.2373 19.8784C17.1517 19.8438 16.499 18.9539 9.47341 9.29325C7.47452 6.54464 5.62596 4.00716 5.36565 3.65439L4.89224 3.01301L5.92155 3.03455L6.95087 3.05609L12.9988 11.4627Z" fill="#929292"/>
</svg>
